<svg width="24" height="24" viewBox="0 0 24 24" fill="none" xmlns="http://www.w3.org/2000/svg">
<path fill-rule="evenodd" clip-rule="evenodd" d="M11.9426 1.25H13.5C13.9142 1.25 14.25 1.58579 14.25 2C14.25 2.41421 13.9142 2.75 13.5 2.75H12C9.62177 2.75 7.91356 2.75159 6.61358 2.92637C5.33517 3.09825 4.56445 3.42514 3.9948 3.9948C3.23505 4.75455 2.91245 5.86509 2.80417 8.03734C2.78355 8.45104 2.43146 8.76969 2.01776 8.74907C1.60406 8.72845 1.28541 8.37636 1.30603 7.96266C1.41642 5.74802 1.74641 4.12187 2.93414 2.93414C3.82895 2.03933 4.96897 1.63399 6.41371 1.43975C7.82519 1.24998 9.63423 1.24999 11.9426 1.25ZM22 9.75C22.4142 9.75 22.75 10.0858 22.75 10.5V12.0574C22.75 14.3658 22.75 16.1748 22.5603 17.5863C22.366 19.031 21.9607 20.1711 21.0659 21.0659C20.1711 21.9607 19.031 22.366 17.5863 22.5603C16.1748 22.75 14.3658 22.75 12.0574 22.75H11.9426C9.63423 22.75 7.82519 22.75 6.41371 22.5603C4.96897 22.366 3.82895 21.9607 2.93414 21.0659C2.03933 20.1711 1.63399 19.031 1.43975 17.5863C1.24998 16.1748 1.24999 14.3658 1.25 12.0574V12C1.25 11.5858 1.58579 11.25 2 11.25C2.41421 11.25 2.75 11.5858 2.75 12C2.75 14.3782 2.75159 16.0864 2.92637 17.3864C3.09825 18.6648 3.42514 19.4355 3.9948 20.0052C4.56445 20.5749 5.33517 20.9018 6.61358 21.0736C7.91356 21.2484 9.62177 21.25 12 21.25C14.3782 21.25 16.0864 21.2484 17.3864 21.0736C18.6648 20.9018 19.4355 20.5749 20.0052 20.0052C20.5749 19.4355 20.9018 18.6648 21.0736 17.3864C21.2484 16.0864 21.25 14.3782 21.25 12V10.5C21.25 10.0858 21.5858 9.75 22 9.75Z" fill="#FFB900"/>
<path fill-rule="evenodd" clip-rule="evenodd" d="M16.7705 2.27592C18.1384 0.908027 20.3562 0.908027 21.7241 2.27592C23.092 3.6438 23.092 5.86158 21.7241 7.22947L18.0928 10.8607C17.7999 11.1536 17.3251 11.1536 17.0322 10.8607C16.7393 10.5678 16.7393 10.093 17.0322 9.80006L19.1051 7.72709C18.5892 7.50519 17.9882 7.14946 17.4193 6.58065C16.8505 6.01185 16.4948 5.41082 16.2729 4.89486L11.2175 9.95026C10.801 10.3668 10.6376 10.532 10.4988 10.71C10.3274 10.9297 10.1804 11.1676 10.0605 11.4192C9.96339 11.623 9.8887 11.8429 9.70242 12.4017L9.27053 13.6974L10.3026 14.7295L11.5983 14.2976C12.1571 14.1113 12.377 14.0366 12.5808 13.9395C12.8324 13.8196 13.0703 13.6726 13.2901 13.5012C13.468 13.3624 13.6332 13.199 14.0497 12.7825C14.3426 12.4896 14.8175 12.4896 15.1104 12.7825C15.4033 13.0754 15.4033 13.5503 15.1104 13.8432L15.076 13.8776C14.7047 14.2489 14.4721 14.4815 14.2126 14.684C13.9069 14.9224 13.5761 15.1268 13.2261 15.2936C12.929 15.4352 12.6169 15.5392 12.1188 15.7052L9.21428 16.6734C8.67803 16.8521 8.08682 16.7126 7.68713 16.3129C7.28744 15.9132 7.14787 15.322 7.32662 14.7857L8.29479 11.8812C8.46081 11.3831 8.56481 11.071 8.70642 10.7739C8.87321 10.4239 9.07763 10.0931 9.31607 9.78742C9.51851 9.52787 9.75112 9.29529 10.1224 8.92401L16.7705 2.27592ZM17.4546 3.7132C17.4773 3.80906 17.509 3.92327 17.5532 4.05066C17.6965 4.46372 17.9677 5.00771 18.48 5.51999C18.9923 6.03227 19.5363 6.30346 19.9493 6.44677C20.0767 6.49097 20.1909 6.52273 20.2868 6.54543L20.6634 6.16881C21.4455 5.38671 21.4455 4.11867 20.6634 3.33658C19.8813 2.55448 18.6133 2.55448 17.8312 3.33658L17.4546 3.7132Z" fill="#FFB900"/>
</svg>
