<svg width="20" height="20" viewBox="0 0 20 20" fill="none" xmlns="http://www.w3.org/2000/svg">
<path fill-rule="evenodd" clip-rule="evenodd" d="M12.8571 5C12.8571 5.75776 12.5561 6.48449 12.0203 7.02031C11.4845 7.55612 10.7578 7.85714 10 7.85714C9.24224 7.85714 8.51551 7.55612 7.97969 7.02031C7.44388 6.48449 7.14286 5.75776 7.14286 5C7.14286 4.24224 7.44388 3.51551 7.97969 2.97969C8.51551 2.44388 9.24224 2.14286 10 2.14286C10.7578 2.14286 11.4845 2.44388 12.0203 2.97969C12.5561 3.51551 12.8571 4.24224 12.8571 5ZM15 5C15 6.32608 14.4732 7.59785 13.5355 8.53553C12.5979 9.47322 11.3261 10 10 10C8.67392 10 7.40215 9.47322 6.46447 8.53553C5.52678 7.59785 5 6.32608 5 5C5 3.67392 5.52678 2.40215 6.46447 1.46447C7.40215 0.526784 8.67392 0 10 0C11.3261 0 12.5979 0.526784 13.5355 1.46447C14.4732 2.40215 15 3.67392 15 5ZM2.14286 16.4286C2.14286 16.1371 2.45714 15.2729 4.02857 14.3443C5.48286 13.4857 7.6 12.8571 10 12.8571C12.4 12.8571 14.5171 13.4857 15.9714 14.3443C17.5429 15.2729 17.8571 16.1371 17.8571 16.4286C17.8571 16.8075 17.7066 17.1708 17.4387 17.4387C17.1708 17.7066 16.8075 17.8571 16.4286 17.8571H3.57143C3.19255 17.8571 2.82919 17.7066 2.56128 17.4387C2.29337 17.1708 2.14286 16.8075 2.14286 16.4286ZM10 10.7143C4.5 10.7143 0 13.5714 0 16.4286C0 17.3758 0.376274 18.2842 1.04605 18.954C1.71582 19.6237 2.62423 20 3.57143 20H16.4286C17.3758 20 18.2842 19.6237 18.954 18.954C19.6237 18.2842 20 17.3758 20 16.4286C20 13.5714 15.5 10.7143 10 10.7143Z" fill="#666C73"/>
</svg>
