<svg width="1093" height="315" viewBox="0 0 1093 315" fill="none" xmlns="http://www.w3.org/2000/svg">
<path d="M330.768 314.5V109.054H410.991V140.622V141.122H411.491H432.991V314.473L330.768 314.5Z" fill="white" stroke="black"/>
<path d="M330.268 315V108.554H411.491V140.622H433.491V314.973L330.268 315Z" fill="#D9D9D9" fill-opacity="0.7" stroke="#A7A9AC" stroke-width="3" stroke-miterlimit="10"/>
<path d="M769.293 315V137.3H699.372V164.897H680.443V314.973L769.293 315Z" fill="white"/>
<path d="M769.293 315V137.3H699.372V164.897H680.443V314.973L769.293 315Z" fill="#D9D9D9" fill-opacity="0.7" stroke="#A7A9AC" stroke-width="3" stroke-miterlimit="10"/>
<path d="M311.976 137.3H225.739" stroke="#939598" stroke-width="1.5" stroke-miterlimit="10"/>
<path d="M372.08 194.216L345.653 207.718H372.08V315H166.941V207.718H193.395L166.941 194.216V192.716H193.395V129.46H225.637V136.552H313.411V129.46H345.653V192.716H372.08V194.216Z" fill="white"/>
<path d="M372.08 194.216L345.653 207.719H372.08V315H166.941V207.719H193.395L166.941 194.216V192.716H193.395V129.46H225.637V136.552H313.411V129.46H345.653V192.716H372.08V194.216Z" stroke="#939598" stroke-width="3" stroke-miterlimit="10"/>
<path d="M539.328 181.61V315H403.439V181.61H415.444V167.352H527.295V181.61H539.328Z" fill="white"/>
<path d="M539.328 181.61V315H403.439V181.61H415.444V167.352H527.295V181.61H539.328Z" stroke="#939598" stroke-width="3" stroke-miterlimit="10"/>
<path d="M274.084 189.564L292.376 207.212V223.537" fill="white"/>
<path d="M274.084 189.564L292.376 207.212V223.537" stroke="#808285" stroke-width="1.5" stroke-miterlimit="10"/>
<path d="M297.603 222.23L315.895 238.111V261.429" fill="white"/>
<path d="M297.603 222.23L315.895 238.111V261.429" stroke="#808285" stroke-width="1.5" stroke-miterlimit="10"/>
<path d="M321.122 260.122L351.174 277.241V315H321.122" fill="white"/>
<path d="M321.122 260.122L351.174 277.241V315H321.122" stroke="#808285" stroke-width="1.5" stroke-miterlimit="10"/>
<path d="M321.122 260.206V315H1V277.299L6.28318 272.882L38.663 277.299V240.169L44.8449 236.953L74.8555 242.241V203.068L87.2191 199.524L120.389 206.094V196.307L125.454 194.235L172.24 203.368L230.791 183.031V200.751L241.085 197.997L275.207 188.947V227.82L293.018 223.241L298.165 221.905V265.522L317.01 261.16L321.122 260.206Z" fill="white"/>
<path d="M321.122 260.206V315H1V277.299L6.28318 272.882L38.663 277.299V240.169L44.8449 236.953L74.8555 242.241V203.068L87.2191 199.524L120.389 206.094V196.307L125.454 194.235L172.24 203.368L230.791 183.031V200.751L241.085 197.997L275.207 188.947V227.82L293.018 223.241L298.165 221.905V265.522L317.01 261.16L321.122 260.206Z" fill="#D9D9D9" stroke="#808285" stroke-width="2" stroke-miterlimit="10"/>
<path d="M230.965 183.031L240.111 187.972V198.711" fill="white"/>
<path d="M230.965 183.031L240.111 187.972V198.711" stroke="#808285" stroke-width="1.5" stroke-miterlimit="10"/>
<path d="M1090.72 172.562V313.693H987.498V172.562H1004V158.206H1074.22V172.562H1090.72Z" fill="white"/>
<path d="M1090.72 172.562V313.693H987.498V172.562H1004V158.206H1074.22V172.562H1090.72Z" fill="#D9D9D9" stroke="#A7A9AC" stroke-width="3" stroke-miterlimit="10"/>
<path d="M1014.94 194.791V315H609.885V194.791H662.979V207.359H759.304V194.791H865.518V207.359H961.844V194.791H1014.94Z" fill="white"/>
<path d="M1014.94 194.791V315H609.885V194.791H662.979V207.359H759.304V194.791H865.518V207.359H961.844V194.791H1014.94Z" stroke="#939598" stroke-width="3" stroke-miterlimit="10"/>
<path d="M794.118 194.791V190.871H830.704V194.791" fill="white"/>
<path d="M794.118 194.791V190.871H830.704V194.791" stroke="#939598" stroke-width="1.5" stroke-miterlimit="10"/>
<path d="M809.798 190.871V147.752H812.411V190.871" fill="white"/>
<path d="M809.798 190.871V147.752H812.411V190.871" stroke="#939598" stroke-width="1.5" stroke-miterlimit="10"/>
<path d="M812.411 147.752H830.704V162.125H812.411" fill="white"/>
<path d="M812.411 147.752H830.704V162.125H812.411" stroke="#939598" stroke-width="1.5" stroke-miterlimit="10"/>
<path d="M794 357L737.57 356.695C737.57 356.695 713.775 252.335 673.612 158.893C641.128 83.2758 597.833 14.8194 548.071 14.8194H545.949C495.43 12.8388 451.326 82.1078 418.337 158.791C377.922 252.233 354.38 356.594 354.38 356.594L298 356.898C321.003 296.228 347.555 236.979 377.518 179.46C425.208 89.2684 487.701 -0.923594 545.848 2.07264C604.047 -0.923594 666.64 89.2684 714.28 179.46C744.349 236.991 770.97 296.276 794 357Z" fill="#980804"/>
<path d="M568.854 86.5505C574.228 83.4729 579.601 80.3623 585.008 77.3011C586.844 76.4252 588.94 76.2586 590.892 76.8335C592.844 77.4084 594.514 78.6841 595.58 80.4149C596.647 82.1457 597.034 84.2092 596.667 86.208C596.301 88.2069 595.207 89.9996 593.596 91.2411C583.904 96.8697 574.211 102.482 564.47 107.995C563.095 108.831 561.49 109.211 559.885 109.081C558.281 108.951 556.758 108.317 555.536 107.271C554.244 106.32 553.266 105.005 552.728 103.494C552.19 101.984 552.118 100.347 552.52 98.7953C552.888 97.5757 553.503 96.445 554.329 95.4737C555.154 94.5024 556.171 93.7115 557.316 93.1502C561.173 91.0107 564.964 88.7395 568.854 86.567" fill="#FFB900"/>
<path d="M572.733 84.103C567.331 80.946 561.912 77.8058 556.526 74.6154C555.366 73.9662 554.379 73.046 553.645 71.9322C552.912 70.8183 552.455 69.5433 552.312 68.2144C552.169 66.8854 552.345 65.5413 552.824 64.295C553.304 63.0486 554.073 61.9365 555.067 61.0521C556.322 59.9344 557.889 59.2349 559.553 59.0495C561.217 58.8641 562.898 59.2019 564.364 60.0164C574.142 65.6623 583.897 71.347 593.631 77.0708C595.036 77.8499 596.163 79.0543 596.853 80.5138C597.543 81.9734 597.761 83.6145 597.475 85.2055C597.297 86.8213 596.642 88.3464 595.597 89.5847C594.552 90.8229 593.163 91.7177 591.609 92.1542C590.359 92.4494 589.063 92.4832 587.801 92.2533C586.538 92.0235 585.335 91.535 584.267 90.8179C580.456 88.5128 576.578 86.3413 572.667 84.1365" fill="#00A050"/>
<path d="M523.78 81.5879L513.411 87.468C511.394 88.6044 509.393 89.8068 507.358 90.9268C505.501 91.7301 503.413 91.8269 501.489 91.1989C499.565 90.5709 497.939 89.2617 496.92 87.5196C495.901 85.7774 495.558 83.7233 495.958 81.7466C496.358 79.77 497.472 78.0081 499.089 76.7949C508.714 71.1949 518.378 65.6388 528.08 60.1266C529.425 59.3057 530.991 58.9174 532.566 59.0147C534.14 59.1119 535.646 59.69 536.878 60.6702C538.225 61.6181 539.253 62.9499 539.826 64.4903C540.398 66.0308 540.489 67.7078 540.087 69.3008C539.786 70.1941 539.363 71.0421 538.83 71.8208C537.867 72.9343 536.754 73.9098 535.522 74.7197C531.669 77.075 527.716 79.315 523.814 81.5879" fill="#FE2B25"/>
<path d="M519.8 83.8532L530.089 89.8634C532.088 91.0357 534.119 92.175 536.118 93.3639C537.77 94.558 538.923 96.3209 539.353 98.3134C539.783 100.306 539.46 102.387 538.447 104.156C537.434 105.925 535.803 107.257 533.866 107.895C531.93 108.533 529.826 108.433 527.959 107.613C518.302 102.109 508.656 96.5341 499.022 90.8871C497.63 90.1402 496.504 88.9798 495.8 87.5661C495.096 86.1524 494.848 84.5551 495.091 82.9946C495.245 81.3573 495.89 79.8048 496.942 78.5407C497.995 77.2767 499.404 76.36 500.987 75.9112C501.91 75.7213 502.855 75.6602 503.795 75.7296C505.255 76.0059 506.667 76.4897 507.99 77.1661C511.971 79.3126 515.869 81.6076 519.8 83.8532Z" fill="#1F87FC"/>
</svg>
