<svg width="234" height="93" viewBox="0 0 234 93" fill="none" xmlns="http://www.w3.org/2000/svg">
<path d="M0.0333836 91.7803C-0.246166 83.2764 1.2324 74.8059 4.37747 66.8937C7.52253 58.9816 12.2671 51.7963 18.3172 45.7832C25.6099 38.6304 35.7698 33.1521 45.7844 35.2401C55.7989 37.328 63.2994 49.8558 57.5649 58.2696C65.6984 35.8869 81.8798 17.2972 102.983 6.09136C115.72 -0.606643 133.235 -3.60417 143.145 6.7736C148.423 12.2932 150.147 20.4383 149.379 28.0046C148.61 35.5708 145.846 42.765 143.145 49.8558C156.983 41.1112 171.361 32.1599 187.587 29.7205C203.814 27.2811 222.493 33.0488 230.076 47.5197C238.574 63.7686 232.549 80.5963 218.919 93" fill="#1F87FC66"/>
</svg>
