<svg width="21" height="21" viewBox="0 0 21 21" fill="none" xmlns="http://www.w3.org/2000/svg">
<path d="M10.5 0C4.70085 0 0 4.70085 0 10.5C0 16.2991 4.70085 21 10.5 21C16.2991 21 21 16.2991 21 10.5C21 4.70085 16.2991 0 10.5 0Z" fill="url(#paint0_linear_112_872)"/>
<path d="M11.9212 13.283H14.6386L15.0654 10.5226H11.9212V9.0137C11.9212 7.8671 12.2961 6.85018 13.3686 6.85018H15.0922V4.44148C14.7893 4.40053 14.1488 4.31128 12.9387 4.31128C10.4113 4.31128 8.92977 5.64583 8.92977 8.68663V10.5231H6.33154V13.2835H8.92924V20.8708C9.44374 20.9475 9.96507 21 10.5 21C10.9836 21 11.4555 20.9559 11.9212 20.8929V13.283Z" fill="white"/>
<defs>
<linearGradient id="paint0_linear_112_872" x1="3.14632" y1="3.14632" x2="19.2229" y2="19.2229" gradientUnits="userSpaceOnUse">
<stop stop-color="#2AA4F4"/>
<stop offset="1" stop-color="#007AD9"/>
</linearGradient>
</defs>
</svg>
