<svg width="78" height="39" viewBox="0 0 78 39" fill="none" xmlns="http://www.w3.org/2000/svg">
<path d="M56.1481 20.9452C60.2333 18.6054 64.3185 16.2406 68.4288 13.9133C69.8249 13.2474 71.4184 13.1208 72.9024 13.5578C74.3864 13.9949 75.6559 14.9648 76.4665 16.2806C77.2772 17.5965 77.5715 19.1653 77.293 20.6849C77.0144 22.2045 76.1825 23.5674 74.9576 24.5112C67.5892 28.7904 60.2208 33.0571 52.8147 37.2487C51.7692 37.884 50.5492 38.1728 49.3293 38.0739C48.1094 37.9751 46.952 37.4935 46.0227 36.6982C45.0401 35.9753 44.2966 34.9753 43.8879 33.8269C43.4792 32.6785 43.4241 31.4343 43.7295 30.2544C44.0093 29.3272 44.4775 28.4675 45.1049 27.7291C45.7323 26.9907 46.5055 26.3894 47.3761 25.9627C50.3084 24.3361 53.1907 22.6094 56.1481 20.9578" fill="#FFB900"/>
<path d="M59.097 19.0846C54.9897 16.6845 50.8699 14.2971 46.7752 11.8716C45.8938 11.3781 45.1428 10.6785 44.5854 9.83174C44.0279 8.98492 43.6802 8.0156 43.5716 7.00524C43.4629 5.99488 43.5965 4.97303 43.9611 4.02551C44.3256 3.07798 44.9105 2.23248 45.6665 1.56008C46.6203 0.710351 47.8115 0.178608 49.0767 0.037662C50.342 -0.103284 51.6196 0.153466 52.7345 0.772751C60.1679 5.065 67.5845 9.38688 74.9842 13.7384C76.0528 14.3307 76.9097 15.2463 77.4342 16.356C77.9587 17.4656 78.1241 18.7132 77.9072 19.9228C77.7713 21.1513 77.274 22.3107 76.4792 23.2521C75.6844 24.1935 74.6285 24.8738 73.4472 25.2056C72.4974 25.43 71.512 25.4557 70.552 25.2809C69.592 25.1062 68.6777 24.7348 67.8658 24.1897C64.9681 22.4372 62.0199 20.7863 59.0466 19.1101" fill="#00A050"/>
<path d="M21.8804 17.1725L13.9971 21.6428C12.4632 22.5069 10.9419 23.421 9.39546 24.2725C7.98364 24.8831 6.39592 24.9567 4.93324 24.4793C3.47057 24.0019 2.2346 23.0066 1.45961 21.6821C0.684614 20.3576 0.424455 18.796 0.728455 17.2932C1.03246 15.7904 1.87949 14.4509 3.10898 13.5287C10.4264 9.27121 17.7732 5.04717 25.1494 0.856514C26.1717 0.232379 27.3624 -0.0627908 28.5593 0.0111495C29.7561 0.0850898 30.9011 0.524569 31.8382 1.26976C32.8622 1.99041 33.6433 3.00289 34.0787 4.17404C34.5141 5.34519 34.5833 6.62013 34.2773 7.83121C34.0483 8.51038 33.7268 9.15501 33.3218 9.74706C32.5896 10.5936 31.7434 11.3352 30.8072 11.9509C27.8777 13.7416 24.8727 15.4445 21.9055 17.1725" fill="#FE2B25"/>
<path d="M18.8539 18.8948L26.6768 23.4641C28.1962 24.3553 29.7407 25.2215 31.2601 26.1253C32.5164 27.0331 33.3923 28.3734 33.7192 29.8882C34.0462 31.403 33.801 32.9852 33.0309 34.3301C32.2608 35.6749 31.0203 36.6875 29.5481 37.1728C28.0759 37.658 26.4762 37.5817 25.057 36.9585C17.7154 32.7742 10.3822 28.5355 3.05736 24.2424C1.9992 23.6745 1.14342 22.7923 0.60812 21.7176C0.0728208 20.6428 -0.115612 19.4284 0.0688158 18.2421C0.18589 16.9973 0.676614 15.817 1.4766 14.856C2.27658 13.895 3.34847 13.1981 4.55163 12.8569C5.2534 12.7125 5.97177 12.6661 6.68629 12.7188C7.79611 12.9289 8.87013 13.2966 9.87573 13.8109C12.9019 15.4428 15.8654 17.1876 18.8539 18.8948Z" fill="#1F87FC"/>
</svg>
