<svg width="20" height="21" viewBox="0 0 20 21" fill="none" xmlns="http://www.w3.org/2000/svg">
<mask id="mask0_112_851" style="mask-type:luminance" maskUnits="userSpaceOnUse" x="0" y="0" width="20" height="21">
<path d="M19.4109 8.22108H10.048V12.1032H15.4374C14.935 14.5696 12.834 15.9854 10.048 15.9854C6.75955 15.9854 4.11054 13.3364 4.11054 10.048C4.11054 6.75955 6.75955 4.11054 10.048 4.11054C11.4638 4.11054 12.7427 4.61294 13.7475 5.43504L16.6705 2.512C14.8893 0.959125 12.6056 0 10.048 0C4.47592 0 0 4.47592 0 10.048C0 15.62 4.47592 20.096 10.048 20.096C15.072 20.096 19.6392 16.4422 19.6392 10.048C19.6392 9.45424 19.5479 8.81482 19.4109 8.22108Z" fill="white"/>
</mask>
<g mask="url(#mask0_112_851)">
<path d="M-0.913452 15.9855V4.1106L6.8509 10.048L-0.913452 15.9855Z" fill="#FBBC05"/>
</g>
<mask id="mask1_112_851" style="mask-type:luminance" maskUnits="userSpaceOnUse" x="0" y="0" width="20" height="21">
<path d="M19.4109 8.22108H10.048V12.1032H15.4374C14.935 14.5696 12.834 15.9854 10.048 15.9854C6.75955 15.9854 4.11054 13.3364 4.11054 10.048C4.11054 6.75955 6.75955 4.11054 10.048 4.11054C11.4638 4.11054 12.7427 4.61294 13.7475 5.43504L16.6705 2.512C14.8893 0.959125 12.6056 0 10.048 0C4.47592 0 0 4.47592 0 10.048C0 15.62 4.47592 20.096 10.048 20.096C15.072 20.096 19.6392 16.4422 19.6392 10.048C19.6392 9.45424 19.5479 8.81482 19.4109 8.22108Z" fill="white"/>
</mask>
<g mask="url(#mask1_112_851)">
<path d="M-0.913452 4.11042L6.8509 10.0479L10.048 7.26183L21.0094 5.4806V-0.913574H-0.913452V4.11042Z" fill="#EA4335"/>
</g>
<mask id="mask2_112_851" style="mask-type:luminance" maskUnits="userSpaceOnUse" x="0" y="0" width="20" height="21">
<path d="M19.4109 8.22108H10.048V12.1032H15.4374C14.935 14.5696 12.834 15.9854 10.048 15.9854C6.75955 15.9854 4.11054 13.3364 4.11054 10.048C4.11054 6.75955 6.75955 4.11054 10.048 4.11054C11.4638 4.11054 12.7427 4.61294 13.7475 5.43504L16.6705 2.512C14.8893 0.959125 12.6056 0 10.048 0C4.47592 0 0 4.47592 0 10.048C0 15.62 4.47592 20.096 10.048 20.096C15.072 20.096 19.6392 16.4422 19.6392 10.048C19.6392 9.45424 19.5479 8.81482 19.4109 8.22108Z" fill="white"/>
</mask>
<g mask="url(#mask2_112_851)">
<path d="M-0.913452 15.9853L12.7883 5.4806L16.3965 5.93732L21.0094 -0.913574V21.0093H-0.913452V15.9853Z" fill="#34A853"/>
</g>
<mask id="mask3_112_851" style="mask-type:luminance" maskUnits="userSpaceOnUse" x="0" y="0" width="20" height="21">
<path d="M19.4109 8.22108H10.048V12.1032H15.4374C14.935 14.5696 12.834 15.9854 10.048 15.9854C6.75955 15.9854 4.11054 13.3364 4.11054 10.048C4.11054 6.75955 6.75955 4.11054 10.048 4.11054C11.4638 4.11054 12.7427 4.61294 13.7475 5.43504L16.6705 2.512C14.8893 0.959125 12.6056 0 10.048 0C4.47592 0 0 4.47592 0 10.048C0 15.62 4.47592 20.096 10.048 20.096C15.072 20.096 19.6392 16.4422 19.6392 10.048C19.6392 9.45424 19.5479 8.81482 19.4109 8.22108Z" fill="white"/>
</mask>
<g mask="url(#mask3_112_851)">
<path d="M21.0095 21.0095L6.85095 10.048L5.02405 8.67786L21.0095 4.1106V21.0095Z" fill="#4285F4"/>
</g>
</svg>
