<svg width="900" height="897" viewBox="0 0 900 897" fill="none" xmlns="http://www.w3.org/2000/svg">
<path d="M573.5 423.494L446.178 496.934C442.36 499.138 438.029 500.299 433.621 500.299C429.212 500.299 424.881 499.14 421.063 496.936C417.245 494.732 414.074 491.563 411.868 487.745C409.663 483.928 408.501 479.598 408.5 475.189V328.226C408.498 323.815 409.657 319.482 411.861 315.662C414.064 311.842 417.235 308.669 421.054 306.463C424.873 304.257 429.205 303.095 433.616 303.095C438.026 303.094 442.358 304.255 446.178 306.46L573.5 379.984C577.32 382.188 580.491 385.359 582.696 389.178C584.902 392.997 586.062 397.329 586.062 401.739C586.062 406.148 584.902 410.48 582.696 414.299C580.491 418.118 577.32 421.289 573.5 423.494Z" fill="#4285F4"/>
<path d="M291.841 423.494L419.164 496.934C422.981 499.138 427.312 500.299 431.721 500.299C436.129 500.299 440.46 499.14 444.278 496.936C448.097 494.732 451.268 491.563 453.473 487.745C455.678 483.928 456.84 479.598 456.842 475.189V328.226C456.844 323.815 455.685 319.482 453.481 315.662C451.277 311.842 448.106 308.669 444.288 306.463C440.469 304.257 436.136 303.095 431.726 303.095C427.316 303.094 422.983 304.255 419.164 306.46L291.841 379.984C288.017 382.184 284.84 385.353 282.63 389.173C280.421 392.992 279.258 397.326 279.258 401.739C279.258 406.151 280.421 410.485 282.63 414.305C284.84 418.124 288.017 421.293 291.841 423.494Z" fill="#4285F4"/>
<path d="M395.507 387.752C396.951 387.551 398.263 386.921 399.21 385.974C400.157 385.027 400.677 383.825 400.677 382.582C400.677 381.34 400.157 380.137 399.21 379.19C398.263 378.243 396.951 377.613 395.507 377.412C394.064 377.613 392.751 378.243 391.804 379.19C390.857 380.137 390.337 381.34 390.337 382.582C390.337 383.825 390.857 385.027 391.804 385.974C392.751 386.921 394.064 387.551 395.507 387.752Z" fill="#231F20"/>
<path d="M473.058 387.752C474.501 387.551 475.814 386.921 476.761 385.974C477.708 385.027 478.228 383.825 478.228 382.582C478.228 381.34 477.708 380.137 476.761 379.19C475.814 378.243 474.501 377.613 473.058 377.412C471.614 377.613 470.302 378.243 469.354 379.19C468.407 380.137 467.888 381.34 467.888 382.582C467.888 383.825 468.407 385.027 469.354 385.974C470.302 386.921 471.614 387.551 473.058 387.752Z" fill="#231F20"/>
<path d="M431.848 413.288C437.893 414.32 444.098 413.899 449.948 412.059C450.377 411.976 450.784 411.805 451.144 411.557C451.504 411.309 451.809 410.99 452.039 410.618C452.27 410.247 452.42 409.831 452.482 409.399C452.544 408.966 452.516 408.525 452.399 408.104C452.282 407.683 452.079 407.29 451.803 406.951C451.527 406.613 451.184 406.334 450.796 406.135C450.407 405.935 449.981 405.818 449.545 405.791C449.108 405.763 448.671 405.827 448.261 405.977C447.015 406.374 445.75 406.707 444.47 406.977C443.783 407.123 443.075 407.227 442.387 407.331H442.033H440.971C439.66 407.404 438.346 407.404 437.034 407.331L435.077 407.373H434.181C434.848 407.373 433.639 407.373 433.535 407.268C432.727 407.067 431.872 407.184 431.147 407.594C430.422 408.005 429.883 408.679 429.64 409.476C429.429 410.282 429.541 411.139 429.954 411.864C430.367 412.588 431.047 413.121 431.848 413.35V413.288Z" fill="#231F20"/>
<path d="M576.312 174.472L446.469 249.454C442.572 251.713 438.149 252.905 433.644 252.91C429.14 252.915 424.714 251.731 420.812 249.48C416.911 247.228 413.672 243.987 411.423 240.085C409.173 236.182 407.993 231.755 408 227.251V77.288C408 72.7914 409.185 68.3742 411.434 64.4803C413.682 60.5864 416.916 57.3529 420.811 55.105C424.705 52.857 429.123 51.6736 433.619 51.6738C438.116 51.674 442.533 52.8578 446.428 55.1061L576.27 130.087C580.17 132.331 583.41 135.563 585.664 139.457C587.918 143.35 589.107 147.769 589.111 152.268C589.115 156.767 587.934 161.188 585.688 165.086C583.441 168.983 580.207 172.221 576.312 174.472Z" fill="#0F9D58"/>
<path d="M289.05 174.472L418.914 249.454C422.809 251.703 427.229 252.887 431.727 252.886C436.226 252.885 440.644 251.7 444.539 249.449C448.435 247.199 451.668 243.963 453.916 240.066C456.163 236.169 457.345 231.749 457.342 227.251V77.288C457.341 72.7914 456.157 68.3742 453.908 64.4803C451.659 60.5864 448.425 57.3529 444.53 55.105C440.636 52.857 436.219 51.6736 431.722 51.6738C427.225 51.674 422.808 52.8578 418.914 55.1061L289.05 130.087C285.153 132.335 281.916 135.57 279.666 139.465C277.415 143.361 276.23 147.781 276.23 152.28C276.23 156.779 277.415 161.199 279.666 165.094C281.916 168.99 285.153 172.225 289.05 174.472Z" fill="#0F9D58"/>
<path d="M381.923 128.275C385.925 130.572 390.496 131.689 395.107 131.497C399.718 131.305 404.18 129.813 407.979 127.192C408.688 126.759 409.203 126.069 409.416 125.266C409.629 124.463 409.525 123.608 409.124 122.881C408.698 122.158 408.005 121.632 407.193 121.418C406.382 121.203 405.52 121.317 404.792 121.735C403.389 122.768 401.846 123.596 400.21 124.193C399.332 124.492 398.434 124.729 397.523 124.901C396.732 125.095 395.921 125.193 395.107 125.192C391.612 125.413 388.131 124.586 385.109 122.818C384.39 122.456 383.56 122.382 382.788 122.611C382.015 122.84 381.36 123.355 380.953 124.05C380.547 124.745 380.422 125.57 380.602 126.354C380.782 127.139 381.254 127.826 381.923 128.275Z" fill="#231F20"/>
<path d="M447.573 124.255C451.574 126.557 456.146 127.677 460.758 127.485C465.37 127.293 469.833 125.798 473.629 123.172C474.338 122.739 474.853 122.049 475.067 121.246C475.28 120.443 475.175 119.589 474.775 118.861C474.345 118.142 473.65 117.62 472.839 117.41C472.029 117.199 471.168 117.317 470.443 117.736C469.04 118.763 467.496 119.584 465.86 120.173C464.98 120.47 464.083 120.713 463.174 120.902C462.381 121.08 461.57 121.171 460.757 121.173C457.262 121.404 453.778 120.576 450.76 118.798C450.041 118.437 449.21 118.363 448.438 118.592C447.666 118.821 447.01 119.335 446.604 120.03C446.198 120.726 446.072 121.55 446.252 122.335C446.432 123.12 446.905 123.806 447.573 124.255Z" fill="#231F20"/>
<path d="M381.652 169.932C387.671 175.618 395.607 177.826 403.626 178.971C412.515 180.265 421.49 180.885 430.473 180.825C448.281 180.637 466.152 177.242 481.815 168.495C485.376 166.516 482.19 161.059 478.628 163.038C464.215 171.098 447.761 174.243 431.369 174.493C423.182 174.591 414.998 174.125 406.875 173.098C399.543 172.181 391.67 170.702 386.047 165.454C383.11 162.684 378.632 167.141 381.59 169.932H381.652Z" fill="#231F20"/>
<path d="M765.015 300.087L636.859 374.047C633.014 376.267 628.653 377.436 624.213 377.435C619.773 377.434 615.412 376.265 611.568 374.044C607.724 371.823 604.532 368.629 602.314 364.784C600.095 360.938 598.929 356.576 598.931 352.136V204.256C598.929 199.817 600.095 195.455 602.314 191.609C604.532 187.763 607.724 184.569 611.568 182.348C615.412 180.128 619.773 178.958 624.213 178.958C628.653 178.957 633.014 180.125 636.859 182.345L765.015 256.348C768.845 258.571 772.025 261.761 774.235 265.599C776.445 269.437 777.609 273.788 777.609 278.217C777.609 282.646 776.445 286.997 774.235 290.835C772.025 294.673 768.845 297.864 765.015 300.087Z" fill="#FBBC04"/>
<path d="M481.523 300.087L609.679 374.047C613.518 376.245 617.867 377.396 622.291 377.387C626.715 377.378 631.059 376.208 634.89 373.994C638.72 371.781 641.903 368.601 644.12 364.773C646.337 360.945 647.51 356.602 647.524 352.178V204.298C647.526 199.858 646.359 195.496 644.141 191.65C641.923 187.805 638.731 184.611 634.887 182.39C631.042 180.169 626.681 179 622.242 178.999C617.802 178.998 613.44 180.167 609.596 182.387L481.523 256.306C477.683 258.526 474.494 261.717 472.277 265.56C470.06 269.402 468.893 273.76 468.893 278.196C468.893 282.632 470.06 286.99 472.277 290.832C474.494 294.675 477.683 297.866 481.523 300.087Z" fill="#FBBC04"/>
<path d="M659.5 281.258C654.251 275.509 645.503 276.113 638.838 278.779C634.673 280.404 631.319 282.945 626.883 283.507C622.657 283.997 618.381 283.85 614.199 283.07C608.138 282.112 602.014 280.216 595.891 279.8C590.6 279.466 588.143 283.465 590.121 288.443C591.35 291.526 596.37 290.172 595.141 287.048C594.933 286.506 594.558 284.424 594.058 285.111C594.245 284.861 594.662 284.986 594.995 284.986C596.589 285.034 598.174 285.251 599.723 285.632C605.805 286.819 611.866 288.193 618.031 288.777C624.569 289.583 631.199 288.415 637.068 285.423C642.504 282.549 650.898 279.55 655.813 284.944C658.063 287.423 661.749 283.736 659.479 281.258H659.5Z" fill="#231F20"/>
<path d="M655.584 284.486L655.98 285.549L656.167 286.194C656.167 286.465 656.167 286.423 656.167 286.194V286.777C656.292 286.486 656.167 287.257 656.167 286.777C656.042 287.069 655.938 287.361 656.167 286.777C656.396 286.59 656.001 287.194 656.167 286.777C656.605 286.548 655.938 286.965 656.167 286.777L655.751 287.007L654.855 287.486C654.168 287.861 653.522 288.298 652.877 288.735C651.668 289.61 650.523 290.547 649.273 291.339L648.336 291.88L647.753 292.193C647.753 292.193 647.149 292.443 647.482 292.318L647.19 292.422L646.691 292.568L646.17 292.693C646.024 292.693 645.378 292.797 646.003 292.693C645.318 292.709 644.665 292.988 644.18 293.473C643.695 293.958 643.416 294.611 643.4 295.296C643.4 296.588 644.566 298.066 646.003 297.9C648.043 297.664 649.998 296.951 651.71 295.817C653.231 294.88 654.584 293.734 656.063 292.734C657.542 291.735 659.625 291.026 660.625 289.256C661.085 288.275 661.315 287.203 661.297 286.12C661.279 285.037 661.013 283.972 660.52 283.008C660.322 282.35 659.878 281.793 659.282 281.452C658.685 281.111 657.981 281.012 657.313 281.175C656.65 281.364 656.089 281.807 655.749 282.407C655.41 283.007 655.321 283.717 655.501 284.382L655.584 284.486Z" fill="#231F20"/>
<path d="M639.901 312.959C639.495 313.856 638.985 314.702 638.38 315.479L638.797 314.937C638.118 315.801 637.342 316.583 636.485 317.27L637.006 316.854C636.115 317.552 635.134 318.127 634.09 318.561L634.694 318.312L633.965 318.582C633.316 318.785 632.761 319.213 632.403 319.79C632.146 320.237 632.027 320.75 632.062 321.264C632.096 321.778 632.282 322.27 632.597 322.678C632.911 323.086 633.34 323.392 633.828 323.556C634.316 323.721 634.842 323.736 635.339 323.602C637.31 322.94 639.127 321.889 640.683 320.512C642.24 319.134 643.503 317.458 644.4 315.583C644.747 314.947 644.844 314.204 644.67 313.5C644.537 313.003 644.259 312.557 643.871 312.217C643.484 311.878 643.005 311.661 642.494 311.595C641.984 311.528 641.465 311.614 641.003 311.842C640.542 312.07 640.158 312.429 639.901 312.875V312.959Z" fill="#231F20"/>
<path d="M637.36 320.935C639.622 322.625 642.39 323.498 645.212 323.414C646.673 323.578 648.15 323.311 649.46 322.644C650.771 321.978 651.857 320.942 652.585 319.665C653.953 317.157 654.506 314.284 654.166 311.447C653.827 308.61 652.611 305.95 650.69 303.835C648.68 301.641 645.999 300.176 643.067 299.67C642.402 299.506 641.699 299.603 641.103 299.94C640.507 300.276 640.062 300.828 639.859 301.482C639.686 302.15 639.78 302.859 640.123 303.459C640.465 304.058 641.028 304.5 641.692 304.689C643.822 304.956 645.77 306.024 647.14 307.676C648.51 309.328 649.198 311.441 649.065 313.583C649.005 314.58 648.772 315.56 648.378 316.478C648.163 316.931 647.898 317.357 647.586 317.749C647.458 317.899 647.293 318.014 647.107 318.082C647.461 317.915 646.67 318.082 646.67 318.082C647.024 318.082 646.253 318.082 646.232 318.082H645.441C644.774 318.082 644.108 318.082 643.358 317.936C643.775 317.936 642.921 317.832 642.921 317.832C642.638 317.782 642.36 317.713 642.088 317.624C642.088 317.624 641.317 317.332 641.671 317.499C641.505 317.421 641.344 317.33 641.192 317.228C640.921 317.061 640.88 317.02 641.046 317.228C640.548 316.758 639.888 316.496 639.203 316.496C638.518 316.496 637.858 316.758 637.36 317.228C636.881 317.718 636.614 318.376 636.614 319.061C636.614 319.746 636.881 320.403 637.36 320.894V320.935Z" fill="#231F20"/>
<path d="M637.505 297.087C638.73 297.32 639.968 297.48 641.212 297.566C642.254 297.566 643.295 297.566 644.378 297.566C644.482 297.566 645.149 297.566 644.712 297.566C644.962 297.566 645.191 297.691 645.441 297.754C645.691 297.816 645.253 297.587 645.67 297.754L646.253 298.129C646.753 298.441 646.086 297.92 646.461 298.295L646.982 298.774C647.315 299.102 647.628 299.45 647.919 299.816V299.712L648.107 299.961L648.461 300.503C648.69 300.878 648.898 301.253 649.106 301.649C649.106 301.649 649.398 302.336 649.273 302.023C649.148 301.711 649.398 302.336 649.419 302.419C649.559 302.822 649.677 303.232 649.773 303.648L649.898 304.273C649.898 304.481 649.898 304.419 649.898 304.106C649.898 304.231 649.898 304.335 649.898 304.44C649.929 304.862 649.929 305.287 649.898 305.71C649.898 305.918 649.898 306.127 649.898 306.335C649.898 306.543 649.898 306.481 649.898 306.168V306.481C649.819 306.939 649.707 307.392 649.565 307.835C649.473 308.163 649.447 308.506 649.489 308.844C649.531 309.182 649.639 309.509 649.807 309.805C649.976 310.101 650.201 310.361 650.47 310.57C650.74 310.779 651.048 310.932 651.377 311.021C652.042 311.195 652.749 311.104 653.348 310.765C653.946 310.427 654.39 309.869 654.584 309.209C655.197 307.078 655.289 304.831 654.855 302.657C654.42 300.482 653.47 298.444 652.085 296.712C650.705 294.685 648.655 293.21 646.295 292.547C645 292.338 643.689 292.254 642.379 292.297C641.754 292.297 641.108 292.297 640.463 292.297H640.067C639.692 292.297 639.338 292.172 638.984 292.109C638.316 291.941 637.609 292.038 637.011 292.38C636.413 292.722 635.971 293.281 635.776 293.942C635.603 294.605 635.695 295.309 636.034 295.904C636.372 296.5 636.93 296.939 637.588 297.129L637.505 297.087Z" fill="#231F20"/>
<path d="M631.923 321.102C632.173 327.246 632.631 333.411 632.548 339.555C632.693 342.144 631.894 344.697 630.299 346.741C628.571 348.563 626.568 350.102 624.363 351.303C619.635 354.198 614.719 356.426 609.054 355.468C603.573 354.32 598.463 351.83 594.183 348.22C591.579 346.137 587.934 349.845 590.517 351.907C595.532 356.208 601.548 359.181 608.012 360.55C614.719 361.633 620.634 359.592 626.341 356.156C631.444 353.094 636.422 349.449 637.464 343.2C637.838 339.825 637.88 336.42 637.588 333.036C637.464 329.058 637.297 325.059 637.13 321.081C636.984 317.748 631.777 317.728 631.923 321.081V321.102Z" fill="#231F20"/>
<path d="M604.263 314.77L604.805 297.691C604.805 297.001 604.53 296.339 604.042 295.85C603.554 295.362 602.892 295.088 602.201 295.088C601.511 295.088 600.848 295.362 600.36 295.85C599.872 296.339 599.598 297.001 599.598 297.691L599.056 314.77C599.062 315.459 599.338 316.118 599.825 316.605C600.312 317.093 600.971 317.369 601.66 317.374C602.347 317.363 603.003 317.086 603.489 316.6C603.975 316.114 604.252 315.458 604.263 314.77Z" fill="#231F20"/>
<path d="M603.972 295.463L594.599 285.903C594.11 285.414 593.447 285.139 592.756 285.139C592.064 285.139 591.401 285.414 590.913 285.903C590.424 286.392 590.149 287.055 590.149 287.746C590.149 288.437 590.424 289.1 590.913 289.589L600.285 299.149C600.776 299.634 601.439 299.906 602.128 299.906C602.818 299.906 603.481 299.634 603.972 299.149C604.442 298.651 604.704 297.991 604.704 297.306C604.704 296.621 604.442 295.961 603.972 295.463Z" fill="#231F20"/>
<path d="M607.95 214.212V220.46C607.95 221.151 608.224 221.813 608.713 222.301C609.201 222.79 609.863 223.064 610.554 223.064C611.239 223.048 611.892 222.769 612.377 222.284C612.862 221.799 613.141 221.146 613.157 220.46V214.212C613.151 213.524 612.874 212.865 612.387 212.379C612.027 212.008 611.563 211.753 611.057 211.648C610.551 211.543 610.024 211.593 609.546 211.79C609.069 211.988 608.661 212.324 608.376 212.756C608.092 213.188 607.943 213.695 607.95 214.212Z" fill="#231F20"/>
<path d="M643.108 214.212V220.46C643.108 221.151 643.382 221.813 643.871 222.301C644.359 222.79 645.021 223.064 645.712 223.064C646.397 223.048 647.05 222.769 647.535 222.284C648.02 221.799 648.299 221.146 648.315 220.46V214.212C648.309 213.524 648.032 212.865 647.544 212.379C647.184 212.008 646.721 211.753 646.215 211.648C645.708 211.543 645.182 211.593 644.704 211.79C644.226 211.988 643.819 212.324 643.534 212.756C643.249 213.188 643.101 213.695 643.108 214.212Z" fill="#231F20"/>
<path d="M602.556 243.017C604.516 244.215 606.173 245.85 607.398 247.793C608.623 249.737 609.382 251.938 609.616 254.223C609.798 256.62 609.408 259.026 608.477 261.242C607.546 263.458 606.102 265.422 604.263 266.97C601.743 269.178 605.43 272.843 607.95 270.656C610.338 268.587 612.202 265.981 613.39 263.052C614.577 260.123 615.054 256.955 614.782 253.806C614.464 250.692 613.432 247.692 611.767 245.041C610.102 242.389 607.848 240.158 605.18 238.519C602.326 236.748 599.702 241.268 602.556 243.017Z" fill="#231F20"/>
<path d="M611.657 256.139C620.572 256.667 629.5 257.083 638.442 257.389C641.796 257.514 641.775 252.307 638.442 252.182C629.514 251.862 620.586 251.446 611.657 250.932C608.304 250.744 608.325 255.952 611.657 256.139Z" fill="#231F20"/>
<path d="M390.046 300.253L260.912 374.755C257.04 376.988 252.648 378.163 248.179 378.162C243.709 378.16 239.318 376.983 235.448 374.748C231.577 372.513 228.363 369.299 226.127 365.429C223.892 361.558 222.714 357.168 222.713 352.698V203.673C222.712 199.202 223.888 194.81 226.123 190.939C228.359 187.068 231.574 183.854 235.446 181.62C239.319 179.386 243.711 178.211 248.181 178.214C252.652 178.217 257.042 179.397 260.912 181.636L390.046 256.139C393.917 258.375 397.131 261.59 399.366 265.462C401.601 269.334 402.777 273.725 402.777 278.196C402.777 282.666 401.601 287.058 399.366 290.929C397.131 294.801 393.917 298.017 390.046 300.253Z" fill="#EA4335"/>
<path d="M104.555 300.253L233.689 374.755C237.561 376.988 241.952 378.163 246.422 378.162C250.892 378.16 255.282 376.983 259.153 374.748C263.024 372.513 266.238 369.299 268.474 365.429C270.709 361.558 271.887 357.168 271.888 352.698V203.673C271.889 199.202 270.713 194.81 268.478 190.939C266.242 187.068 263.027 183.854 259.154 181.62C255.282 179.386 250.89 178.211 246.42 178.214C241.949 178.217 237.559 179.397 233.689 181.636L104.555 256.139C100.684 258.375 97.4696 261.59 95.2349 265.462C93.0002 269.334 91.8237 273.725 91.8237 278.196C91.8237 282.666 93.0002 287.058 95.2349 290.929C97.4696 294.801 100.684 298.017 104.555 300.253Z" fill="#EA4335"/>
<path d="M227.003 244.517C229.004 245.616 230.937 246.833 232.793 248.162L233.397 248.621L233.814 248.912C234.022 249.1 234.085 249.12 233.939 249.037C233.793 248.954 233.939 249.037 234.085 249.141L234.48 249.454C234.684 249.602 234.879 249.762 235.064 249.933C235.98 250.683 236.876 251.453 237.75 252.265L239.583 247.829C234.22 247.84 228.933 249.11 224.15 251.536C223.561 251.892 223.134 252.463 222.959 253.127C222.784 253.792 222.875 254.499 223.212 255.098C223.575 255.679 224.146 256.099 224.807 256.273C225.469 256.447 226.173 256.362 226.774 256.035L228.378 255.265C228.69 255.14 228.669 255.161 228.378 255.265L228.836 255.077L229.544 254.807C230.669 254.411 231.794 254.078 232.939 253.786L234.668 253.432L235.418 253.307C235.737 253.307 235.737 253.307 235.418 253.307H235.918C237.087 253.182 238.262 253.12 239.438 253.119C239.948 253.105 240.443 252.944 240.863 252.655C241.284 252.366 241.612 251.962 241.808 251.491C242.003 251.02 242.059 250.502 241.967 250C241.876 249.498 241.641 249.034 241.291 248.662C237.715 245.342 233.75 242.468 229.482 240.102C229.186 239.93 228.86 239.817 228.521 239.771C228.182 239.725 227.837 239.746 227.507 239.833C227.176 239.92 226.866 240.071 226.593 240.278C226.321 240.485 226.092 240.744 225.92 241.039C225.748 241.334 225.635 241.661 225.589 242C225.543 242.339 225.564 242.683 225.651 243.014C225.738 243.345 225.889 243.655 226.096 243.927C226.303 244.2 226.562 244.428 226.857 244.601L227.003 244.517Z" fill="#231F20"/>
<path d="M275.22 246.287L276.158 258.784C276.168 259.471 276.446 260.127 276.932 260.613C277.418 261.099 278.074 261.377 278.761 261.388C279.45 261.382 280.109 261.106 280.596 260.619C281.083 260.132 281.359 259.473 281.365 258.784L280.427 246.287C280.417 245.6 280.139 244.944 279.653 244.458C279.167 243.972 278.511 243.694 277.824 243.684C277.135 243.689 276.476 243.965 275.989 244.452C275.502 244.939 275.226 245.598 275.22 246.287Z" fill="#231F20"/>
<path d="M233.981 289.589C226.857 293.838 219.804 298.219 212.819 302.732C212.235 303.091 211.811 303.661 211.637 304.325C211.462 304.988 211.55 305.693 211.882 306.293C212.234 306.886 212.804 307.316 213.471 307.491C214.137 307.667 214.846 307.573 215.444 307.23C222.386 302.732 229.447 298.351 236.626 294.088C237.222 293.737 237.655 293.164 237.829 292.494C238.003 291.824 237.904 291.112 237.553 290.516C237.202 289.919 236.629 289.486 235.959 289.313C235.289 289.139 234.577 289.238 233.981 289.589Z" fill="#231F20"/>
<path d="M222.171 303.232C232.585 309.668 243.936 314.833 256.183 316.291C266.014 317.478 279.094 316.562 284.78 307.085C285.128 306.488 285.225 305.778 285.049 305.11C284.874 304.442 284.44 303.871 283.843 303.523C283.246 303.175 282.536 303.078 281.868 303.254C281.2 303.43 280.629 303.864 280.281 304.46C275.387 312.667 262.286 312.167 254.184 310.709C243.681 308.684 233.672 304.638 224.712 298.795C221.858 297.025 219.234 301.545 222.088 303.294L222.171 303.232Z" fill="#231F20"/>
<path d="M391.046 42.5256C401.69 34.4471 414.834 30.3632 428.182 30.9868C441.068 31.7454 453.29 36.9581 462.757 45.7331C467.673 50.2736 475.066 42.9213 470.13 38.3807C458.862 27.9278 444.35 21.6567 429.015 20.6143C413.539 19.7029 398.236 24.2752 385.797 33.5278C384.636 34.253 383.796 35.3939 383.447 36.7177C383.099 38.0415 383.269 39.4483 383.922 40.651C384.63 41.8319 385.771 42.6892 387.102 43.0395C388.433 43.3899 389.849 43.2054 391.046 42.5256Z" fill="#00A651"/>
<path d="M413.248 13.9701C413.873 13.5744 414.519 13.1786 415.185 12.8245L416.06 12.3872C416.06 12.3872 417.018 11.9289 416.56 12.1372C416.102 12.3455 417.206 11.8873 417.331 11.8456L418.268 11.5332C418.976 11.3041 419.684 11.0958 420.351 10.9292C421.017 10.7626 421.788 10.6168 422.434 10.4918C421.496 10.6376 423.183 10.4918 423.517 10.4918C425 10.3772 426.49 10.3772 427.974 10.4918C428.286 10.4918 430.057 10.7417 429.057 10.4918C429.807 10.6168 430.536 10.7417 431.265 10.9084C432.63 11.2398 433.972 11.6572 435.285 12.158C436.159 12.4913 435.139 12.158 435.639 12.3038L436.534 12.7412C437.201 13.0745 437.846 13.4286 438.492 13.8243C439.138 14.22 439.596 14.5325 440.138 14.9074C440.679 15.2823 440.138 14.9074 440.471 15.1573L441.408 15.9696C442.399 16.9132 443.716 17.4395 445.084 17.4395C446.453 17.4395 447.769 16.9132 448.76 15.9696C449.73 14.9874 450.273 13.6629 450.273 12.283C450.273 10.9031 449.73 9.57867 448.76 8.59643C443.227 3.75034 436.297 0.787776 428.971 0.136379C421.645 -0.515017 414.301 1.17846 408 4.97234C406.827 5.68695 405.977 6.82806 405.627 8.1562C405.278 9.48434 405.456 10.8962 406.125 12.0956C406.829 13.2806 407.97 14.1414 409.303 14.4922C410.636 14.8429 412.053 14.6554 413.248 13.9701Z" fill="#00A651"/>
<path d="M781.428 252.682C785.299 255.323 788.521 258.807 790.852 262.873C793.182 266.939 794.561 271.48 794.883 276.155C795.097 281.058 794.165 285.942 792.162 290.422C790.16 294.901 787.14 298.852 783.344 301.961C782.381 302.943 781.841 304.263 781.841 305.638C781.841 307.013 782.381 308.332 783.344 309.314C784.334 310.268 785.655 310.802 787.03 310.802C788.406 310.802 789.727 310.268 790.717 309.314C795.612 305.172 799.478 299.949 802.008 294.057C804.538 288.165 805.664 281.766 805.297 275.364C804.792 269.021 802.858 262.874 799.641 257.384C796.423 251.894 792.005 247.204 786.718 243.663C781.136 239.914 775.929 248.933 781.469 252.661L781.428 252.682Z" fill="#FFB900"/>
<path d="M807.442 259.242C816.398 269.823 816.377 286.048 808.296 297.191C807.603 298.383 807.41 299.8 807.757 301.134C808.104 302.468 808.964 303.611 810.15 304.314C811.348 304.98 812.756 305.159 814.082 304.814C815.409 304.469 816.551 303.626 817.273 302.461C828.166 287.444 826.625 265.845 814.794 251.89C813.816 250.922 812.495 250.379 811.118 250.379C809.742 250.379 808.421 250.922 807.442 251.89C806.489 252.876 805.956 254.194 805.956 255.566C805.956 256.938 806.489 258.256 807.442 259.242Z" fill="#FFB900"/>
<path d="M409.937 519.948C417.528 523.843 425.826 526.17 434.335 526.789C442.845 527.408 451.392 526.307 459.466 523.552C460.778 523.159 461.888 522.274 462.563 521.083C463.239 519.891 463.427 518.485 463.091 517.158C462.716 515.833 461.835 514.708 460.639 514.026C459.443 513.345 458.027 513.16 456.696 513.513C449.961 515.901 442.813 516.906 435.68 516.465C428.547 516.025 421.576 514.15 415.186 510.951C413.984 510.292 412.576 510.119 411.251 510.468C409.925 510.817 408.784 511.66 408.063 512.825C407.377 514.021 407.19 515.438 407.541 516.771C407.891 518.104 408.752 519.245 409.937 519.948Z" fill="#1F87FC"/>
<path d="M427.766 541.194L449.448 542.277C450.827 542.271 452.148 541.721 453.124 540.746C454.099 539.77 454.649 538.449 454.655 537.07C454.628 535.697 454.071 534.388 453.1 533.417C452.129 532.446 450.82 531.889 449.448 531.863L427.766 530.78C426.388 530.79 425.07 531.343 424.096 532.317C423.122 533.291 422.569 534.609 422.559 535.987C422.585 537.359 423.142 538.668 424.113 539.639C425.084 540.61 426.393 541.167 427.766 541.194Z" fill="#1F87FC"/>
<path d="M76.6865 246.183C71.513 249.673 67.3068 254.415 64.46 259.968C61.6132 265.521 60.2184 271.705 60.4055 277.942C60.5927 284.18 62.3556 290.268 65.5302 295.641C68.7048 301.013 73.1876 305.495 78.5611 308.668C84.2888 312.167 89.5375 303.169 83.8098 299.691C79.9899 297.433 76.7949 294.257 74.5155 290.45C72.2361 286.643 70.9445 282.326 70.7583 277.893C70.572 273.46 71.4969 269.05 73.4489 265.065C75.401 261.081 78.3182 257.647 81.9352 255.077C83.1001 254.355 83.9438 253.214 84.2925 251.889C84.6413 250.564 84.4685 249.155 83.8098 247.954C83.1029 246.772 81.96 245.916 80.6275 245.569C79.2951 245.222 77.8797 245.413 76.6865 246.1V246.183Z" fill="#FE2B25"/>
<path d="M48.4016 261.784C44.4518 265.891 42.0095 271.216 41.4724 276.889C40.9353 282.562 42.3352 288.25 45.444 293.026C45.79 293.617 46.249 294.134 46.7947 294.547C47.3405 294.96 47.9623 295.262 48.6248 295.435C49.2872 295.609 49.9772 295.649 50.6555 295.556C51.3337 295.462 51.9869 295.236 52.5777 294.89C53.1685 294.544 53.6853 294.085 54.0987 293.539C54.5122 292.994 54.814 292.372 54.9871 291.709C55.1602 291.047 55.2012 290.357 55.1076 289.679C55.014 289 54.7878 288.347 54.4418 287.756C53.8502 286.9 53.3212 286.002 52.8588 285.07C52.4423 284.216 53.1296 285.819 52.8588 285.195L52.6714 284.486C52.5048 284.007 52.359 283.507 52.2132 283.008C52.0674 282.508 51.9841 281.987 51.9007 281.487C51.7549 280.654 51.9007 281.175 51.9007 281.675C51.9223 281.446 51.9223 281.216 51.9007 280.987C51.8174 279.885 51.8174 278.778 51.9007 277.676V276.988C51.9007 276.301 51.6508 278.321 51.9007 277.176C51.9007 276.655 52.0882 276.155 52.2132 275.634C52.3381 275.114 52.4839 274.635 52.6506 274.135C52.7394 273.924 52.8159 273.709 52.8797 273.489C53.1921 272.594 52.5464 274.197 52.8797 273.614C53.3178 272.672 53.8188 271.76 54.3793 270.886C54.5043 270.698 54.6501 270.511 54.7542 270.323C55.1083 269.782 54.0669 271.136 54.7542 270.323C55.4415 269.511 55.504 269.469 55.9206 269.053C56.8983 268.075 57.4476 266.749 57.4476 265.366C57.4476 263.983 56.8983 262.657 55.9206 261.68C54.9428 260.702 53.6167 260.153 52.234 260.153C50.8513 260.153 49.5251 260.702 48.5474 261.68L48.4016 261.784Z" fill="#FE2B25"/>
<path d="M544.159 775.847C546.389 810.116 545.105 844.495 540.323 878.557C539.375 885.318 550.881 885.906 553.067 880.1L555.088 874.772C557.727 867.716 545.19 864.666 542.715 871.685L540.736 877.013L553.479 878.557C558.24 844.494 559.524 810.116 557.314 775.847C556.861 768.497 543.87 768.497 544.324 775.847H544.159Z" fill="#FE2B25"/>
<path d="M554.746 836.581C568.619 830.377 583.592 826.479 598.963 825.071C600.52 825.045 602.007 824.471 603.112 823.469C604.217 822.467 604.855 821.114 604.893 819.692C604.874 818.262 604.243 816.896 603.135 815.885C602.027 814.874 600.53 814.298 598.963 814.28C581.518 815.831 564.52 820.228 548.778 827.263C548.043 827.589 547.39 828.05 546.859 828.617C546.328 829.184 545.932 829.845 545.694 830.559C545.456 831.273 545.383 832.024 545.479 832.764C545.574 833.505 545.836 834.22 546.249 834.864C546.661 835.508 547.215 836.067 547.875 836.506C548.536 836.946 549.288 837.256 550.086 837.417C550.884 837.578 551.71 837.587 552.512 837.443C553.314 837.299 554.075 837.006 554.746 836.581Z" fill="#FE2B25"/>
<path d="M592.533 786.219L581.662 880.986C580.919 887.411 592.767 888.99 593.745 882.528L594.683 876.359C595.063 874.886 594.829 873.332 594.03 872.015C593.23 870.698 591.926 869.717 590.382 869.273C588.806 868.867 587.122 869.064 585.7 869.821C584.279 870.578 583.234 871.833 582.796 873.312L581.857 879.444L593.94 880.986L604.85 786.182C605.711 778.838 593.393 778.838 592.533 786.182V786.219Z" fill="#FE2B25"/>
<path d="M616.412 779.581C611.267 795.273 608.337 811.641 607.709 828.186C607.2 841.534 606.799 858.284 614.991 869.501C623.184 880.718 638.003 881.241 649.217 874.549C661.815 867.071 667.167 852.452 671.755 839.104C674.194 831.963 663.125 828.859 660.832 836.001C657.373 846.021 653.55 858.247 644.119 864.08C635.454 869.501 625.332 867.819 621.655 857.387C617.977 846.956 618.705 833.57 619.47 822.391C620.481 808.872 623.122 795.534 627.334 782.684C629.701 775.506 618.633 772.402 616.412 779.581Z" fill="#FE2B25"/>
<path d="M665.251 783.701L656.62 873.155C656.047 879.141 665.06 880.974 667.81 876.148L672.163 868.665C675.982 862.043 665.594 856.094 661.814 862.717L657.422 870.199L668.65 873.155L677.243 783.701C677.968 776.218 665.785 776.218 665.251 783.701Z" fill="#FE2B25"/>
<path d="M700.94 790.353C701.862 791.384 703.011 792.168 704.289 792.635C705.567 793.103 706.935 793.24 708.276 793.036C709.617 792.832 710.889 792.292 711.984 791.463C713.079 790.634 713.963 789.54 714.561 788.277C715.107 786.938 715.378 785.496 715.357 784.042C715.336 782.588 715.023 781.154 714.439 779.833C713.854 778.512 713.011 777.332 711.962 776.368C710.914 775.405 709.684 774.68 708.35 774.238C697.054 769.748 683.76 777.295 679.292 788.239C674.098 800.693 679.728 811.901 687.102 821.713C691.46 827.562 695.928 833.298 700.287 839.148C703.592 843.563 707.551 848.922 707.369 854.847C707.115 859.375 703.737 863.564 699.233 860.621C694.729 857.677 698.035 852.281 702.03 851.45C709.294 849.978 706.171 838.544 698.979 840.129C696.533 840.599 694.223 841.644 692.226 843.184C690.228 844.724 688.597 846.718 687.455 849.014C686.313 851.31 685.693 853.847 685.64 856.431C685.587 859.015 686.104 861.577 687.15 863.921C688.197 866.265 689.746 868.33 691.679 869.957C693.611 871.583 695.876 872.729 698.301 873.307C700.725 873.884 703.245 873.878 705.666 873.288C708.088 872.698 710.348 871.541 712.273 869.904C721.317 862.356 719.537 848.62 714.234 839.299C707.696 827.977 697.926 819.109 691.46 807.863C689.815 805.486 688.862 802.668 688.714 799.745C688.566 796.821 689.229 793.915 690.625 791.372C692.179 788.823 694.504 786.885 697.235 785.862C698.512 785.398 699.844 785.118 701.195 785.032C701.787 784.994 702.382 784.994 702.974 785.032C703.334 785.017 703.693 785.082 704.028 785.22C706.062 785.975 707.66 784.918 709.149 782.012C704.318 776.239 696.255 784.692 701.086 790.39L700.94 790.353Z" fill="#FE2B25"/>
<path d="M741.806 791.254L742.09 875.69L753.972 872.751L751.174 868.176C747.119 861.592 736.17 867.507 740.184 874.09L742.942 878.665C743.664 879.756 744.754 880.601 746.046 881.073C747.339 881.545 748.763 881.618 750.105 881.282C751.447 880.946 752.633 880.219 753.484 879.21C754.336 878.201 754.806 876.965 754.824 875.69L754.581 791.254C754.453 789.781 753.724 788.406 752.541 787.403C751.357 786.401 749.805 785.844 748.194 785.844C746.582 785.844 745.03 786.401 743.847 787.403C742.663 788.406 741.935 789.781 741.806 791.254Z" fill="#FE2B25"/>
<path d="M728.511 789.905C752.947 786.155 777.81 787.346 801.847 793.418C809.199 795.214 812.213 783.119 804.935 781.442C778.87 774.945 751.921 773.768 725.46 777.969C723.988 778.417 722.738 779.477 721.981 780.919C721.224 782.362 721.021 784.07 721.416 785.674C721.845 787.261 722.824 788.605 724.148 789.424C725.471 790.243 727.035 790.473 728.511 790.065V789.905Z" fill="#FE2B25"/>
<path d="M187.565 802.142C194.419 793.1 186.497 782.19 177.212 779.408C168.193 777.117 158.668 777.824 150.093 781.421C141.5 784.67 134.016 790.282 128.515 797.601C123.015 804.92 119.726 813.645 119.032 822.753C118.375 831.901 120.392 841.042 124.84 849.078C129.288 857.114 135.978 863.701 144.106 868.048C152.233 872.395 161.451 874.317 170.652 873.581C179.852 872.845 188.643 869.484 195.966 863.902C205.03 857.129 210.962 846.586 203.335 836.226C195.708 825.865 183.291 825.902 171.906 827.073C164.537 827.842 164.537 839.227 171.906 838.605L216.784 834.944C224.153 834.322 224.153 822.79 216.784 823.412L171.906 827.073V838.605C178.428 837.91 187.234 836.445 192.576 841.351C197.919 846.256 192.982 852.077 187.934 855.445C182.682 858.958 176.639 861.13 170.341 861.769C164.042 862.407 157.683 861.493 151.825 859.106C146.281 856.546 141.465 852.656 137.812 847.786C134.158 842.916 131.782 837.22 130.896 831.21C129.904 825.085 130.565 818.809 132.811 813.02C135.057 807.232 138.808 802.139 143.682 798.262C148.975 793.941 155.336 791.11 162.105 790.061C165.274 789.585 182.591 789.658 177.47 796.395C172.974 802.325 183.033 808.073 187.492 802.215L187.565 802.142Z" fill="#1F87FC"/>
<path d="M236.148 826.765C232.266 826.753 228.505 828.049 225.532 830.422C222.559 832.796 220.566 836.093 219.905 839.73C219.364 843.473 220.058 847.283 221.892 850.635C223.725 853.987 226.608 856.714 230.142 858.442C233.828 860.145 237.9 860.952 241.995 860.789C246.089 860.626 250.077 859.499 253.6 857.508C256.988 855.773 259.748 853.108 261.52 849.86C263.292 846.612 263.994 842.932 263.534 839.299C262.137 830.644 253.562 825.903 245.894 822.742C244.515 822.032 242.904 821.848 241.387 822.228C239.871 822.608 238.565 823.524 237.735 824.789C236.96 826.089 236.752 827.624 237.155 829.068C237.557 830.511 238.538 831.747 239.888 832.511C242.418 833.54 244.867 834.74 247.216 836.103L248.16 836.677L248.425 836.857C247.896 836.462 248.727 837.072 248.802 837.18L249.369 837.647C249.873 838.126 250.326 838.593 250.729 839.048C250.729 839.048 250.238 838.329 250.729 838.868C251.22 839.407 251.182 839.515 251.371 839.874L251.824 840.7C251.824 840.7 251.56 839.838 251.824 840.412C252.089 840.987 252.127 841.49 252.24 841.993C251.938 840.772 252.24 842.316 252.24 842.747C252.24 843.537 252.24 843.178 252.24 842.747C252.24 841.957 252.24 843.07 252.24 843.25C252.24 843.429 252.051 843.788 251.975 844.076C251.9 844.363 252.466 843.178 251.975 843.717C251.484 844.255 251.484 844.579 251.182 845.01C251.028 845.263 250.851 845.503 250.653 845.728C251.447 844.902 250.653 845.548 250.653 845.728L249.293 846.985C249.293 847.165 248.425 847.631 249.293 846.985L248.727 847.38C248.274 847.667 247.82 847.955 247.329 848.206C246.838 848.457 245.289 849.068 246.612 848.601L244.685 849.212C244.081 849.212 243.438 849.463 242.834 849.643C243.741 849.643 242.23 849.822 242.834 849.643H242.041H239.057C238.377 849.643 239.926 849.858 238.83 849.643L237.017 849.176C237.017 849.176 235.846 848.781 236.488 849.176C237.13 849.571 236.488 849.176 236.261 849.176C236.035 849.176 235.128 848.529 234.524 848.242C234.524 848.242 235.279 848.853 234.788 848.422L233.882 847.631C233.648 847.421 233.433 847.193 233.24 846.949C232.673 846.267 233.24 846.949 233.24 846.949C233.806 847.631 232.748 846.231 232.635 846.015C232.469 845.747 232.318 845.472 232.182 845.189C232.56 846.267 232.182 845.405 232.182 845.189C231.804 844.112 231.842 844.004 231.691 843.429C231.691 844.614 231.691 843.645 231.691 843.429V842.531C231.703 842.171 231.793 841.816 231.955 841.49C231.955 841.274 231.955 841.095 231.955 840.879C231.955 841.203 231.691 841.957 231.955 840.879C232.105 840.62 232.269 840.368 232.446 840.125C233.315 839.371 232.673 839.766 232.446 840.125L233.731 838.904C232.786 839.694 233.957 838.904 234.411 838.617C235.468 838.042 234.222 838.617 234.184 838.617C234.146 838.617 235.053 838.437 235.279 838.329C235.506 838.222 234.826 838.329 234.788 838.329H236.148C237.644 838.216 239.04 837.571 240.058 836.522C241.077 835.474 241.642 834.1 241.642 832.673C241.642 831.246 241.077 829.871 240.058 828.823C239.04 827.775 237.644 827.13 236.148 827.016V826.765Z" fill="#FE2B25"/>
<path d="M286.657 826.108C284.766 825.011 282.647 824.345 280.457 824.159C278.267 823.973 276.062 824.273 274.006 825.035C271.739 825.85 269.692 827.159 268.02 828.862C266.347 830.566 265.093 832.619 264.353 834.867C263.151 839.263 263.547 843.93 265.475 848.072C267.402 852.213 270.741 855.571 274.92 857.571C278.971 859.81 283.57 860.926 288.221 860.8C292.872 860.674 297.401 859.311 301.319 856.856C304.825 854.344 307.479 850.862 308.939 846.859C310.399 842.856 310.598 838.517 309.509 834.403C308.114 829.859 305.185 825.911 301.201 823.203C297.217 820.496 292.413 819.188 287.571 819.493C286.057 819.521 284.614 820.121 283.543 821.168C282.473 822.215 281.859 823.627 281.831 825.107C281.84 826.593 282.448 828.015 283.522 829.065C284.597 830.116 286.052 830.711 287.571 830.72H289.619H290.789C290.533 830.72 289.582 830.47 290.789 830.72C291.382 830.841 291.968 830.997 292.544 831.185L293.421 831.471C292.141 831.006 293.421 831.471 293.714 831.65L295.469 832.722C296.163 833.151 294.81 832.114 295.469 832.722L296.31 833.473C296.752 833.888 297.167 834.33 297.553 834.796C297.333 834.474 296.785 833.938 297.553 834.796L298.247 835.94L298.65 836.727C298.65 836.333 298.138 835.761 298.65 836.727C298.65 837.12 298.979 837.978 299.161 838.622C299.344 839.265 299.161 837.263 299.161 838.622C299.161 838.908 299.161 839.194 299.161 839.48C299.161 839.766 298.979 842.054 299.161 840.588C299.096 841.182 298.974 841.769 298.796 842.34C298.796 842.59 298.796 842.876 298.54 843.162C298.284 843.448 298.028 844.557 298.357 843.734C298.686 842.912 298.138 844.199 298.101 844.271L297.662 845.022L297.187 845.772C296.456 846.952 297.955 844.986 297.004 846.023C296.602 846.452 296.2 846.881 295.761 847.274L295.103 847.846C294.44 848.26 293.743 848.619 293.019 848.919C293.969 848.633 293.275 848.919 293.019 848.919L291.483 849.348L290.423 849.562C291.556 849.562 290.679 849.562 290.423 849.562H288.302H286.949H286.401H285.597L284.353 849.276L282.233 848.561C283.33 848.955 281.721 848.347 281.355 848.132C280.701 847.797 280.066 847.427 279.454 847.024C279.198 847.024 278.394 846.166 279.235 847.024L278.357 846.237L277.516 845.379C277.333 845.379 276.895 844.521 277.516 845.379C277.151 844.843 276.821 844.307 276.492 843.734C276.492 843.52 276.163 843.162 276.492 843.734C276.336 843.361 276.202 842.979 276.09 842.59C275.988 842.285 275.902 841.975 275.834 841.661V840.946C275.834 841.553 275.834 841.661 275.834 841.232C275.834 840.803 275.834 840.588 275.834 840.266C275.834 839.945 276.054 838.622 275.834 839.372C275.615 840.123 275.834 839.122 275.834 838.943C275.834 838.765 276.419 837.442 276.09 838.05C275.761 838.657 276.09 837.799 276.346 837.656C276.459 837.441 276.594 837.237 276.748 837.048C276.31 837.549 276.236 837.656 276.529 837.334C276.742 837.162 276.938 836.971 277.114 836.762C277.263 836.61 277.422 836.467 277.589 836.333C277.077 836.727 276.968 836.798 277.297 836.584C277.565 836.462 277.821 836.319 278.065 836.155L278.65 835.869C277.991 836.119 277.882 836.19 278.284 836.047L279.125 835.833H279.747C278.979 835.833 278.832 835.833 279.271 835.833H280.77C280.002 835.833 279.856 835.833 280.258 835.833C280.527 835.942 280.81 836.014 281.099 836.047C281.502 836.047 281.355 836.047 280.697 835.869L281.428 836.298C282.083 836.741 282.824 837.047 283.605 837.198C284.386 837.348 285.19 837.338 285.968 837.17C286.745 837.002 287.478 836.678 288.122 836.22C288.765 835.761 289.304 835.177 289.706 834.505C290.108 833.833 290.363 833.087 290.456 832.314C290.549 831.541 290.478 830.757 290.246 830.012C290.015 829.268 289.629 828.578 289.112 827.986C288.595 827.394 287.958 826.913 287.242 826.573L286.657 826.108Z" fill="#FFB900"/>
<path d="M368.987 844.431C376.009 837.85 382.002 830.172 386.753 821.674C391.408 813.399 397.412 802.094 394.925 792.119C392.438 782.145 381.317 776.788 373.606 783.992C365.896 791.196 368.738 805.05 369.733 814.803C371.048 827.881 372.682 840.958 374.566 853.962C374.964 855.442 375.908 856.698 377.192 857.459C378.475 858.22 379.996 858.423 381.423 858.026C382.833 857.579 384.025 856.587 384.752 855.253C385.48 853.92 385.687 852.347 385.332 850.859C383.697 839.53 382.288 828.151 381.103 816.724C380.819 813.953 377.124 791.824 381.956 792.193C385.509 792.452 384.088 799.323 383.555 801.207C382.209 805.607 380.41 809.844 378.19 813.842C373.72 822.169 367.944 829.661 361.099 836.008C355.734 840.995 363.693 849.197 369.023 844.209L368.987 844.431Z" fill="#00A050"/>
<path d="M394.599 842.714C399.268 843.688 404.092 843.749 408.785 842.894C413.042 841.958 416.771 839.498 419.221 836.01C420.439 834.112 421.145 831.95 421.274 829.72C421.404 827.491 420.954 825.266 419.964 823.248C418.903 821.291 417.299 819.658 415.331 818.531C413.364 817.404 411.11 816.828 408.823 816.867C399.724 816.867 393.225 825.255 391.145 833.071C389.966 837.092 390.08 841.364 391.473 845.32C392.866 849.277 395.471 852.732 398.944 855.226C400.807 856.503 402.919 857.4 405.152 857.863C407.386 858.326 409.693 858.345 411.935 857.919C414.176 857.493 416.304 856.631 418.188 855.385C420.073 854.139 421.676 852.536 422.898 850.673C423.358 850.032 423.676 849.305 423.832 848.539C423.988 847.773 423.979 846.984 423.804 846.222C423.629 845.46 423.293 844.741 422.817 844.11C422.34 843.48 421.734 842.951 421.036 842.557C420.338 842.163 419.563 841.912 418.76 841.821C417.957 841.73 417.143 841.8 416.369 842.027C415.596 842.254 414.879 842.633 414.264 843.14C413.649 843.647 413.149 844.271 412.796 844.973C412.796 844.973 412.462 845.618 412.351 845.618C412.239 845.618 413.093 844.865 412.351 845.403L411.794 845.941C410.977 846.766 412.016 845.941 412.016 845.941C412.016 845.941 410.902 846.622 410.642 846.765C410.382 846.909 410.642 846.765 410.902 846.765C411.162 846.765 410.085 847.016 409.9 847.052L409.12 847.232C408.34 847.447 410.234 847.232 409.454 847.232H407.783C407.152 847.232 408.266 847.232 408.303 847.232C408.34 847.232 407.709 847.232 407.523 847.052L406.706 846.837C405.443 846.515 407.671 847.411 406.52 846.837C405.991 846.609 405.492 846.32 405.035 845.977C406.112 846.909 405.035 845.977 405.035 845.977L404.403 845.403C404.403 845.403 403.178 844.148 403.698 844.722C404.218 845.296 403.698 844.722 403.512 844.435C403.293 844.15 403.094 843.851 402.918 843.539L402.509 842.786C402.509 842.786 401.989 841.352 401.952 841.209C401.915 841.065 401.729 839.201 401.767 840.384C401.767 839.667 401.767 838.914 401.767 838.197C401.767 837.48 401.767 837.516 401.767 837.194C401.767 836.871 401.544 838.054 401.767 837.194C401.989 836.333 402.064 835.903 402.249 835.258C402.435 834.612 402.658 834.146 402.844 833.609C402.844 833.609 403.289 832.712 403.549 832.282L404.589 830.705C405.258 829.916 404.589 830.454 404.589 830.705C404.767 830.462 404.965 830.234 405.183 830.024C405.555 829.629 405.963 829.307 406.334 828.912C406.706 828.518 405.555 829.378 406.334 828.912L407.3 828.303L408.117 828.052C408.39 827.942 408.678 827.87 408.971 827.837C407.894 827.837 408.34 827.837 408.748 827.837C409.157 827.837 409.491 827.837 409.64 827.837C409.788 827.837 408.228 827.55 409.38 827.837C409.974 828.016 409.862 827.837 409.194 827.837C409.194 827.837 410.382 828.554 409.677 828.052C410.42 828.482 408.971 827.55 409.677 828.052C408.934 827.622 409.677 828.052 409.677 828.303C409.677 828.554 409.417 827.371 409.677 828.088L409.9 828.84C410.122 829.593 409.9 827.837 409.9 828.589C409.882 828.792 409.882 828.996 409.9 829.199C409.9 829.199 410.16 828.052 409.9 828.912C409.809 829.315 409.684 829.711 409.528 830.095C409.528 830.095 410.271 828.948 409.528 829.88C410.048 829.45 408.786 830.812 409.528 829.88L408.934 830.525C408.934 830.812 408.117 831.278 408.934 830.525C408.934 830.239 407.374 831.386 407.189 831.493C407.003 831.601 408.154 831.207 407.374 831.493C407.009 831.579 406.649 831.687 406.297 831.816C405.996 831.871 405.699 831.943 405.406 832.031C404.069 832.354 406.669 832.031 404.96 832.031H402.361L399.761 831.852L398.053 831.601C396.558 831.252 394.981 831.465 393.643 832.197C392.304 832.93 391.305 834.126 390.848 835.544C390.458 836.989 390.666 838.524 391.429 839.822C392.192 841.121 393.449 842.081 394.933 842.499L394.599 842.714Z" fill="#FE2B25"/>
<path d="M338.629 822.327C334.913 820.37 330.636 819.997 326.671 821.286C322.706 822.574 319.354 825.426 317.301 829.258C312.573 837.978 317.055 849.343 325.11 853.778C329.29 855.858 334.02 856.331 338.491 855.114C342.961 853.898 346.897 851.068 349.625 847.108C352.496 842.721 354.069 837.522 354.144 832.177C354.219 826.833 352.792 821.586 350.046 817.11C349.423 816.021 348.485 815.175 347.373 814.701C346.26 814.228 345.033 814.151 343.876 814.483C342.719 814.815 341.695 815.537 340.957 816.542C340.219 817.547 339.807 818.779 339.784 820.054C340.205 835.829 340.006 851.604 339.189 867.379C339.014 871.105 338.839 874.832 338.524 878.297C338.313 880.57 338.068 883.775 336.107 885.154C335.477 885.601 335.477 885.638 335.091 884.893C334.808 884.352 334.629 883.757 334.566 883.142C334.86 879.898 336.082 876.828 338.068 874.347C341.816 867.938 332.29 862.013 328.542 868.422C324.095 876.099 320.593 886.607 327.912 893.836C335.232 901.065 345.633 894.842 348.4 885.862C349.569 880.714 350.145 875.433 350.116 870.137C350.431 864.584 350.676 858.957 350.816 853.48C351.166 842.3 351.131 831.121 350.816 819.942L340.555 822.923C341.938 825.084 342.801 827.573 343.07 830.172C343.338 832.771 343.004 835.4 342.096 837.829C341.246 839.912 339.781 841.642 337.922 842.759C336.064 843.875 333.914 844.316 331.799 844.015C328.612 843.195 325.25 839.282 326.441 835.63C326.908 834.293 327.844 833.201 329.052 832.582C330.26 831.964 331.647 831.868 332.92 832.314C339.224 835.742 344.792 825.644 338.489 822.215L338.629 822.327Z" fill="#1F87FC"/>
<path d="M456.611 814.067C462.48 819.168 468.068 824.579 473.352 830.278C475.951 833.094 478.474 835.986 480.997 838.916L484.513 843.293L485.163 844.13L485.851 845.005L487.724 847.517C488.53 848.884 489.848 849.877 491.389 850.277C492.931 850.676 494.568 850.45 495.942 849.648C497.315 848.845 498.312 847.533 498.714 845.998C499.115 844.464 498.888 842.834 498.082 841.466C488.45 828.353 477.401 816.332 465.135 805.619C464.003 804.53 462.487 803.926 460.913 803.94C459.339 803.953 457.833 804.581 456.72 805.689C455.607 806.798 454.976 808.297 454.963 809.864C454.949 811.431 455.555 812.94 456.649 814.067H456.611Z" fill="#231F20"/>
<path d="M464.662 848.622C478.075 836.073 493.123 825.499 509.375 817.203C510.557 816.362 511.387 815.094 511.698 813.653C512.009 812.211 511.778 810.703 511.052 809.428C510.326 808.154 509.158 807.207 507.782 806.778C506.405 806.349 504.921 806.469 503.627 807.113C486.534 815.956 470.72 827.192 456.637 840.498C456.108 841.039 455.688 841.681 455.4 842.389C455.113 843.096 454.964 843.855 454.962 844.621C454.961 845.387 455.106 846.147 455.39 846.855C455.675 847.564 456.092 848.208 456.619 848.751C457.146 849.295 457.772 849.726 458.461 850.021C459.151 850.316 459.89 850.468 460.637 850.47C461.383 850.472 462.123 850.323 462.814 850.031C463.504 849.739 464.132 849.311 464.662 848.77V848.622Z" fill="#231F20"/>
<path d="M59.8146 842.715H95.286C96.7917 842.585 98.1969 841.848 99.2216 840.65C100.246 839.453 100.815 837.882 100.815 836.252C100.815 834.622 100.246 833.051 99.2216 831.854C98.1969 830.656 96.7917 829.919 95.286 829.79H59.8146C58.3089 829.919 56.9037 830.656 55.8789 831.854C54.8542 833.051 54.2852 834.622 54.2852 836.252C54.2852 837.882 54.8542 839.453 55.8789 840.65C56.9037 841.848 58.3089 842.585 59.8146 842.715Z" fill="#666C73"/>
<path d="M5.86906 842.715L37.5693 841.661C38.3819 841.726 39.1992 841.622 39.9696 841.353C40.74 841.085 41.447 840.659 42.0459 840.102C42.6448 839.546 43.1227 838.87 43.4496 838.119C43.7765 837.367 43.9452 836.555 43.9452 835.735C43.9452 834.914 43.7765 834.102 43.4496 833.351C43.1227 832.599 42.6448 831.924 42.0459 831.367C41.447 830.81 40.74 830.384 39.9696 830.116C39.1992 829.848 38.3819 829.743 37.5693 829.808L5.86906 830.9C4.3125 830.9 2.8197 831.522 1.71904 832.63C0.618387 833.738 0 835.24 0 836.807C0 838.374 0.618387 839.876 1.71904 840.984C2.8197 842.092 4.3125 842.715 5.86906 842.715Z" fill="#666C73"/>
<path d="M860.862 842.715H894.363C895.785 842.585 897.112 841.848 898.08 840.65C899.047 839.453 899.585 837.882 899.585 836.252C899.585 834.622 899.047 833.051 898.08 831.854C897.112 830.656 895.785 829.919 894.363 829.79H860.862C859.44 829.919 858.113 830.656 857.145 831.854C856.177 833.051 855.64 834.622 855.64 836.252C855.64 837.882 856.177 839.453 857.145 840.65C858.113 841.848 859.44 842.585 860.862 842.715Z" fill="#666C73"/>
<path d="M807.223 842.715L838.924 841.661C839.736 841.726 840.554 841.622 841.324 841.353C842.094 841.085 842.801 840.659 843.4 840.102C843.999 839.546 844.477 838.87 844.804 838.119C845.131 837.367 845.3 836.555 845.3 835.735C845.3 834.914 845.131 834.102 844.804 833.351C844.477 832.599 843.999 831.924 843.4 831.367C842.801 830.81 842.094 830.384 841.324 830.116C840.554 829.848 839.736 829.743 838.924 829.808L807.223 830.9C805.667 830.9 804.174 831.522 803.073 832.63C801.973 833.738 801.354 835.24 801.354 836.807C801.354 838.374 801.973 839.876 803.073 840.984C804.174 842.092 805.667 842.715 807.223 842.715Z" fill="#666C73"/>
</svg>
