<svg width="26" height="24" viewBox="0 0 26 24" fill="none" xmlns="http://www.w3.org/2000/svg">
<path fill-rule="evenodd" clip-rule="evenodd" d="M0 1.6C0 1.12136 0.388021 0.733337 0.866667 0.733337H4.33333C4.81198 0.733337 5.2 1.12136 5.2 1.6C5.2 2.07865 4.81198 2.46667 4.33333 2.46667H0.866667C0.388021 2.46667 0 2.07865 0 1.6ZM6.93333 1.6C6.93333 1.12136 7.32136 0.733337 7.8 0.733337H25.1333C25.6119 0.733337 26 1.12136 26 1.6C26 2.07865 25.6119 2.46667 25.1333 2.46667H7.8C7.32136 2.46667 6.93333 2.07865 6.93333 1.6ZM6.93333 6.8C6.93333 6.32136 7.32136 5.93334 7.8 5.93334H19.9333C20.4119 5.93334 20.8 6.32136 20.8 6.8C20.8 7.27865 20.4119 7.66667 19.9333 7.66667H7.8C7.32136 7.66667 6.93333 7.27865 6.93333 6.8ZM0 12C0 11.5214 0.388021 11.1333 0.866667 11.1333H4.33333C4.81198 11.1333 5.2 11.5214 5.2 12C5.2 12.4786 4.81198 12.8667 4.33333 12.8667H0.866667C0.388021 12.8667 0 12.4786 0 12ZM6.93333 12C6.93333 11.5214 7.32136 11.1333 7.8 11.1333H25.1333C25.6119 11.1333 26 11.5214 26 12C26 12.4786 25.6119 12.8667 25.1333 12.8667H7.8C7.32136 12.8667 6.93333 12.4786 6.93333 12ZM6.93333 17.2C6.93333 16.7214 7.32136 16.3333 7.8 16.3333H19.9333C20.4119 16.3333 20.8 16.7214 20.8 17.2C20.8 17.6786 20.4119 18.0667 19.9333 18.0667H7.8C7.32136 18.0667 6.93333 17.6786 6.93333 17.2ZM0 22.4C0 21.9214 0.388021 21.5333 0.866667 21.5333H4.33333C4.81198 21.5333 5.2 21.9214 5.2 22.4C5.2 22.8786 4.81198 23.2667 4.33333 23.2667H0.866667C0.388021 23.2667 0 22.8786 0 22.4ZM6.93333 22.4C6.93333 21.9214 7.32136 21.5333 7.8 21.5333H25.1333C25.6119 21.5333 26 21.9214 26 22.4C26 22.8786 25.6119 23.2667 25.1333 23.2667H7.8C7.32136 23.2667 6.93333 22.8786 6.93333 22.4Z" fill="#172B4D"/>
</svg>
