<svg width="29" height="23" viewBox="0 0 29 23" fill="none" xmlns="http://www.w3.org/2000/svg">
<path d="M28.012 2.90218C28.012 1.34239 27.0072 0.0869598 25.7588 0.0869598H2.25314C1.00478 0.0869598 0 1.34239 0 2.90218V20.1359C0 21.6576 1.00478 22.913 2.25314 22.913H25.7893C27.0376 22.913 28.0424 21.6576 28.0424 20.0978V2.90218H28.012ZM25.5762 3.13044V5.79348H2.43582V3.13044H25.5762ZM2.43582 19.8696V10.3587H25.5762V19.8696H2.43582ZM23.2926 14.9239C23.2926 15.7609 22.7445 16.4457 22.0747 16.4457H16.2896C15.6197 16.4457 15.0717 15.7609 15.0717 14.9239C15.0717 14.087 15.6197 13.4022 16.2896 13.4022H22.0747C22.7445 13.4022 23.2926 14.087 23.2926 14.9239Z" fill="#44546F"/>
</svg>
