<svg width="24" height="20" viewBox="0 0 24 20" fill="none" xmlns="http://www.w3.org/2000/svg">
<path d="M0.9 17.7778H15.9C16.3971 17.7778 16.8 18.2752 16.8 18.8889C16.8 19.4514 16.4614 19.9163 16.0221 19.9899L15.9 20H0.9C0.402944 20 0 19.5025 0 18.8889C0 18.3264 0.338585 17.8615 0.777875 17.7879L0.9 17.7778ZM0.9 11.8519H23.1C23.5971 11.8519 24 12.3493 24 12.963C24 13.5255 23.6614 13.9904 23.2221 14.0639L23.1 14.0741H0.9C0.402944 14.0741 0 13.5766 0 12.963C0 12.4005 0.338585 11.9356 0.777875 11.862L0.9 11.8519ZM0.9 5.92593H23.1C23.5971 5.92593 24 6.42339 24 7.03704C24 7.59955 23.6614 8.06443 23.2221 8.13801L23.1 8.14815H0.9C0.402944 8.14815 0 7.65069 0 7.03704C0 6.47452 0.338585 6.00964 0.777875 5.93607L0.9 5.92593ZM0.9 0H23.1C23.5971 0 24 0.497461 24 1.11111C24 1.67362 23.6614 2.13851 23.2221 2.21208L23.1 2.22222H0.9C0.402944 2.22222 0 1.72476 0 1.11111C0 0.548599 0.338585 0.0837168 0.777875 0.0101429L0.9 0Z" fill="#172B4D"/>
</svg>
