<svg width="40" height="40" viewBox="0 0 40 40" fill="none" xmlns="http://www.w3.org/2000/svg">
<path opacity="0.4" d="M20 36.6667C29.2047 36.6667 36.6667 29.2047 36.6667 20C36.6667 10.7953 29.2047 3.33334 20 3.33334C10.7953 3.33334 3.33337 10.7953 3.33337 20C3.33337 29.2047 10.7953 36.6667 20 36.6667Z" fill="#D9D9D9" fill-opacity="0.5"/>
<path d="M21.7657 20.0002L25.599 16.1669C26.0824 15.6835 26.0824 14.8835 25.599 14.4002C25.1157 13.9169 24.3157 13.9169 23.8324 14.4002L19.999 18.2335L16.1656 14.4002C15.6823 13.9169 14.8823 13.9169 14.399 14.4002C13.9157 14.8835 13.9157 15.6835 14.399 16.1669L18.2324 20.0002L14.399 23.8335C13.9157 24.3168 13.9157 25.1168 14.399 25.6002C14.649 25.8502 14.9656 25.9668 15.2823 25.9668C15.599 25.9668 15.9156 25.8502 16.1656 25.6002L19.999 21.7668L23.8324 25.6002C24.0824 25.8502 24.399 25.9668 24.7157 25.9668C25.0324 25.9668 25.349 25.8502 25.599 25.6002C26.0824 25.1168 26.0824 24.3168 25.599 23.8335L21.7657 20.0002Z" fill="#292D32"/>
</svg>
