<svg width="20" height="18" viewBox="0 0 20 18" fill="none" xmlns="http://www.w3.org/2000/svg">
<path d="M0 4V2C0 1.45 0.196 0.979333 0.588 0.588C0.98 0.196667 1.45067 0.000666667 2 0H18C18.55 0 19.021 0.196 19.413 0.588C19.805 0.98 20.0007 1.45067 20 2V4H18V2H2V4H0ZM6 18V16H2C1.45 16 0.979333 15.8043 0.588 15.413C0.196667 15.0217 0.000666667 14.5507 0 14V12H2V14H18V12H20V14C20 14.55 19.8043 15.021 19.413 15.413C19.0217 15.805 18.5507 16.0007 18 16H14V18H6ZM2.8 8L5.4 5.4L4 4L0 8L4 12L5.4 10.6L2.8 8ZM17.2 8L14.6 10.6L16 12L20 8L16 4L14.6 5.4L17.2 8Z" fill="black"/>
</svg>
