<svg width="20" height="20" viewBox="0 0 20 20" fill="none" xmlns="http://www.w3.org/2000/svg">
<path d="M0 18.5714H20V20H0V18.5714ZM17.8571 6.42837C18.0466 6.42837 18.2283 6.35311 18.3622 6.21915C18.4962 6.0852 18.5714 5.90351 18.5714 5.71407V3.57118C18.5714 3.42438 18.5261 3.28117 18.4417 3.16103C18.3574 3.04089 18.2381 2.94965 18.1 2.89974L10.2429 0.0425539C10.0859 -0.0141846 9.91408 -0.0141846 9.75714 0.0425539L1.9 2.89974C1.76195 2.94965 1.64263 3.04089 1.55828 3.16103C1.47392 3.28117 1.42863 3.42438 1.42857 3.57118V5.71407C1.42857 5.90351 1.50383 6.0852 1.63778 6.21915C1.77174 6.35311 1.95342 6.42837 2.14286 6.42837H2.85714V15.7142H1.42857V17.1428H18.5714V15.7142H17.1429V6.42837H17.8571ZM2.85714 4.07119L10 1.47115L17.1429 4.07119V4.99977H2.85714V4.07119ZM11.4286 15.7142H8.57143V6.42837H11.4286V15.7142ZM4.28571 6.42837H7.14286V15.7142H4.28571V6.42837ZM15.7143 15.7142H12.8571V6.42837H15.7143V15.7142Z" fill="black"/>
</svg>
