<svg width="18" height="18" viewBox="0 0 18 18" fill="none" xmlns="http://www.w3.org/2000/svg">
<path d="M15.9515 0.295295C15.7591 0.131478 15.539 0.032372 15.3106 0.00668881C15.0822 -0.0189944 14.8526 0.0295318 14.6418 0.148002L7.73507 3.72724C7.57156 3.8148 7.39669 3.85982 7.22015 3.8598H2.79851C2.4274 3.8598 2.0715 4.05378 1.80909 4.39907C1.54667 4.74436 1.39925 5.21267 1.39925 5.70097V5.84827H0V10.2671H1.39925V10.4586C1.40802 10.9392 1.55931 11.3962 1.82077 11.732C2.08224 12.0678 2.43315 12.2557 2.79851 12.2555L4.47761 16.9395C4.59131 17.2549 4.77031 17.5217 4.99406 17.7093C5.21781 17.8969 5.47723 17.9977 5.74254 18H6.44776C6.81692 17.9961 7.16996 17.8004 7.42995 17.4556C7.68995 17.1107 7.83583 16.6446 7.83582 16.1588V12.4323L14.6418 16.0115C14.8092 16.0992 14.9877 16.1442 15.1679 16.1441C15.4474 16.1382 15.7196 16.0256 15.9515 15.8201C16.1356 15.6565 16.2875 15.4376 16.3945 15.1814C16.5016 14.9253 16.5608 14.6393 16.5672 14.3471V1.81242C16.5661 1.5127 16.5095 1.21784 16.4022 0.953453C16.2949 0.689063 16.1402 0.463137 15.9515 0.295295ZM6.43657 5.70097V10.4586H2.79851V5.70097H6.43657ZM6.43657 16.1588H5.73134L4.35448 12.2555H6.43657V16.1588ZM8.25 10.6795C8.11709 10.5901 7.97851 10.5162 7.83582 10.4586V5.59787C7.97714 5.5595 8.1157 5.5053 8.25 5.43585L15.1679 1.81242V14.3029L8.25 10.6795ZM16.6007 6.2165V9.89884C16.9719 9.89884 17.3278 9.70486 17.5902 9.35958C17.8526 9.01429 18 8.54598 18 8.05767C18 7.56936 17.8526 7.10106 17.5902 6.75577C17.3278 6.41048 16.9719 6.2165 16.6007 6.2165Z" fill="black"/>
</svg>
