<svg width="18" height="16" viewBox="0 0 18 16" fill="none" xmlns="http://www.w3.org/2000/svg">
<path d="M2 16C1.45 16 0.979333 15.8043 0.588 15.413C0.196666 15.0217 0.000666667 14.5507 0 14C0 13.45 0.196 12.9793 0.588 12.588C0.98 12.1967 1.45067 12.0007 2 12C2.55 12 3.021 12.196 3.413 12.588C3.805 12.98 4.00067 13.4507 4 14C4 14.55 3.80433 15.021 3.413 15.413C3.02167 15.805 2.55067 16.0007 2 16ZM2 10C1.45 10 0.979333 9.80433 0.588 9.413C0.196666 9.02167 0.000666667 8.55067 0 8C0 7.45 0.196 6.97933 0.588 6.588C0.98 6.19667 1.45067 6.00067 2 6C2.55 6 3.021 6.196 3.413 6.588C3.805 6.98 4.00067 7.45067 4 8C4 8.55 3.80433 9.021 3.413 9.413C3.02167 9.805 2.55067 10.0007 2 10ZM2 4C1.45 4 0.979333 3.80433 0.588 3.413C0.196666 3.02167 0.000666667 2.55067 0 2C0 1.45 0.196 0.979333 0.588 0.588C0.98 0.196666 1.45067 0.000666667 2 0C2.55 0 3.021 0.196 3.413 0.588C3.805 0.98 4.00067 1.45067 4 2C4 2.55 3.80433 3.021 3.413 3.413C3.02167 3.805 2.55067 4.00067 2 4ZM8 4C7.45 4 6.97933 3.80433 6.588 3.413C6.19667 3.02167 6.00067 2.55067 6 2C6 1.45 6.196 0.979333 6.588 0.588C6.98 0.196666 7.45067 0.000666667 8 0C8.55 0 9.021 0.196 9.413 0.588C9.805 0.98 10.0007 1.45067 10 2C10 2.55 9.80433 3.021 9.413 3.413C9.02167 3.805 8.55067 4.00067 8 4ZM14 4C13.45 4 12.9793 3.80433 12.588 3.413C12.1967 3.02167 12.0007 2.55067 12 2C12 1.45 12.196 0.979333 12.588 0.588C12.98 0.196666 13.4507 0.000666667 14 0C14.55 0 15.021 0.196 15.413 0.588C15.805 0.98 16.0007 1.45067 16 2C16 2.55 15.8043 3.021 15.413 3.413C15.0217 3.805 14.5507 4.00067 14 4ZM8 10C7.45 10 6.97933 9.80433 6.588 9.413C6.19667 9.02167 6.00067 8.55067 6 8C6 7.45 6.196 6.97933 6.588 6.588C6.98 6.19667 7.45067 6.00067 8 6C8.55 6 9.021 6.196 9.413 6.588C9.805 6.98 10.0007 7.45067 10 8C10 8.55 9.80433 9.021 9.413 9.413C9.02167 9.805 8.55067 10.0007 8 10ZM9 16V12.925L14.525 7.425C14.675 7.275 14.8417 7.16667 15.025 7.1C15.2083 7.03333 15.3917 7 15.575 7C15.775 7 15.9667 7.03767 16.15 7.113C16.3333 7.18833 16.5 7.30067 16.65 7.45L17.575 8.375C17.7083 8.525 17.8127 8.69167 17.888 8.875C17.9633 9.05833 18.0007 9.24167 18 9.425C18 9.60833 17.9667 9.796 17.9 9.988C17.8333 10.18 17.725 10.3507 17.575 10.5L12.075 16H9ZM10.5 14.5H11.45L14.475 11.45L14.025 10.975L13.55 10.525L10.5 13.55V14.5ZM14.025 10.975L13.55 10.525L14.475 11.45L14.025 10.975Z" fill="black"/>
</svg>
