<svg width="20" height="20" viewBox="0 0 20 20" fill="none" xmlns="http://www.w3.org/2000/svg">
<g clip-path="url(#clip0_34_613)">
<path d="M0 4.38C0 5.15333 0.206667 5.88667 0.62 6.58C1.11333 5.19333 1.88667 3.98 2.94 2.94C3.99333 1.9 5.20667 1.12667 6.58 0.62C5.87333 0.206667 5.14 0 4.38 0C3.16667 0 2.13333 0.433333 1.28 1.3C0.426667 2.16667 0 3.19333 0 4.38ZM1.26 10C1.26 11.16 1.48 12.2667 1.92 13.32C2.36 14.3733 2.97333 15.3067 3.76 16.12V18.76C3.76 19.1067 3.88 19.4 4.12 19.64C4.36 19.88 4.65333 20 5 20C5.34667 20 5.64 19.88 5.88 19.64C6.12 19.4 6.24667 19.1067 6.26 18.76V17.88C7.47333 18.4667 8.72 18.76 10 18.76C11.28 18.76 12.5333 18.4667 13.76 17.88V18.76C13.76 19.1067 13.88 19.4 14.12 19.64C14.36 19.88 14.6533 20 15 20C15.3467 20 15.64 19.88 15.88 19.64C16.12 19.4 16.2467 19.1067 16.26 18.76V16.12C17.0467 15.3067 17.66 14.38 18.1 13.34C18.54 12.3 18.76 11.1867 18.76 10C18.76 8.81333 18.5267 7.68 18.06 6.6C17.5933 5.52 16.9733 4.58667 16.2 3.8C15.4267 3.01333 14.4933 2.39333 13.4 1.94C12.3067 1.48667 11.1733 1.25333 10 1.24C8.82667 1.22667 7.69333 1.46 6.6 1.94C5.50667 2.42 4.57333 3.04 3.8 3.8C3.02667 4.56 2.40667 5.49333 1.94 6.6C1.47333 7.70667 1.24667 8.84 1.26 10ZM3.76 10C3.76 9.14667 3.92 8.34 4.24 7.58C4.56 6.82 5.00667 6.15333 5.58 5.58C6.15333 5.00667 6.82 4.56 7.58 4.24C8.34 3.92 9.14667 3.75333 10 3.74C11.1333 3.74 12.18 4.02 13.14 4.58C14.1 5.14 14.86 5.9 15.42 6.86C15.98 7.82 16.26 8.86667 16.26 10C16.26 10.84 16.0933 11.6467 15.76 12.42C15.4267 13.1933 14.98 13.86 14.42 14.42C13.86 14.98 13.1933 15.4267 12.42 15.76C11.6467 16.0933 10.84 16.2533 10 16.24C8.86667 16.24 7.82 15.9667 6.86 15.42C5.9 14.8733 5.14667 14.1133 4.6 13.14C4.05333 12.1667 3.77333 11.12 3.76 10ZM8.76 10C8.76 10.3467 8.88 10.64 9.12 10.88C9.36 11.12 9.65333 11.24 10 11.24H12.5C12.8467 11.24 13.14 11.12 13.38 10.88C13.62 10.64 13.7467 10.3467 13.76 10C13.7733 9.65333 13.6467 9.36 13.38 9.12C13.1133 8.88 12.82 8.75333 12.5 8.74H11.26V7.5C11.26 7.15333 11.1333 6.86 10.88 6.62C10.6267 6.38 10.3333 6.25333 10 6.24C9.66667 6.22667 9.37333 6.35333 9.12 6.62C8.86667 6.88667 8.74667 7.18 8.76 7.5V10ZM13.42 0.62C14.8067 1.12667 16.02 1.9 17.06 2.94C18.1 3.98 18.8733 5.19333 19.38 6.58C19.7933 5.88667 20 5.15333 20 4.38C20 3.18 19.5733 2.15333 18.72 1.3C17.8667 0.446667 16.8333 0.0133333 15.62 0C14.86 0 14.1267 0.206667 13.42 0.62Z" fill="#1F87FC"/>
</g>
<defs>
<clipPath id="clip0_34_613">
<rect width="20" height="20" fill="white"/>
</clipPath>
</defs>
</svg>
