<svg width="10" height="10" viewBox="0 0 10 10" fill="none" xmlns="http://www.w3.org/2000/svg">
<g clip-path="url(#clip0_51_158)">
<path d="M5.03562 -0.00343323C2.98594 -0.00343323 1.25 1.7425 1.25 3.81032C1.25 5.97594 3.26219 8.19063 4.61563 9.74719C4.62094 9.75344 4.83969 9.99625 5.10906 9.99625H5.13281C5.4025 9.99625 5.61969 9.75344 5.625 9.74719C6.895 8.28719 8.75 5.87938 8.75 3.81032C8.75 1.74219 7.39594 -0.00343323 5.03562 -0.00343323ZM5.16094 9.32782C5.15 9.33876 5.13406 9.35094 5.12 9.36125C5.10563 9.35125 5.09 9.33876 5.07844 9.32782L4.915 9.13969C3.63188 7.66782 1.87469 5.65188 1.87469 3.81C1.87469 2.08125 3.32219 0.620942 5.03531 0.620942C7.16938 0.620942 8.12469 2.2225 8.12469 3.81C8.12469 5.20813 7.1275 7.06501 5.16094 9.32782ZM5.01094 1.88875C3.97563 1.88875 3.13594 2.72813 3.13594 3.76375C3.13594 4.79938 3.97563 5.63875 5.01094 5.63875C6.04625 5.63875 6.88594 4.79907 6.88594 3.76375C6.88594 2.72844 6.04656 1.88875 5.01094 1.88875ZM5.01094 5.01375C4.32156 5.01375 3.74656 4.43938 3.74656 3.75C3.74656 3.06063 4.30719 2.5 4.99656 2.5C5.68625 2.5 6.24656 3.06063 6.24656 3.75C6.24688 4.43938 5.70062 5.01375 5.01094 5.01375Z" fill="#666C73"/>
</g>
<defs>
<clipPath id="clip0_51_158">
<rect width="10" height="10" fill="white"/>
</clipPath>
</defs>
</svg>
