<svg width="15" height="15" viewBox="0 0 15 15" fill="none" xmlns="http://www.w3.org/2000/svg">
<g clip-path="url(#clip0_34_585)">
<path d="M5 7.5H5.00562M7.49438 7.5H7.5M9.99438 7.5H10" stroke="#666C73" stroke-linecap="round" stroke-linejoin="round"/>
<path d="M7.5 13.75C10.9517 13.75 13.75 10.9517 13.75 7.5C13.75 4.04822 10.9517 1.25 7.5 1.25C4.04822 1.25 1.25 4.04822 1.25 7.5C1.25 8.49981 1.48476 9.44475 1.90216 10.2828C2.01309 10.5055 2.05001 10.7601 1.9857 11.0004L1.61344 12.3917C1.45184 12.9956 2.00438 13.5481 2.60834 13.3866L3.99962 13.0143C4.23996 12.95 4.49451 12.9869 4.71721 13.0978C5.55523 13.5152 6.50019 13.75 7.5 13.75Z" stroke="#666C73"/>
</g>
<defs>
<clipPath id="clip0_34_585">
<rect width="15" height="15" fill="white"/>
</clipPath>
</defs>
</svg>
