<svg width="50" height="50" viewBox="0 0 50 50" fill="none" xmlns="http://www.w3.org/2000/svg">
<path d="M30.8333 20L31.1193 20.2859C33.3415 22.5082 34.4527 23.6193 34.4527 25C34.4527 26.3807 33.3415 27.4918 31.1193 29.714L30.8333 30" stroke="#1F87FC" stroke-width="2" stroke-linecap="round"/>
<path d="M27.157 16.9507L25.0002 25L22.8433 33.0495" stroke="#1F87FC" stroke-width="2" stroke-linecap="round"/>
<path d="M19.1666 20L18.8806 20.2859C16.6584 22.5082 15.5473 23.6193 15.5473 25C15.5473 26.3807 16.6584 27.4918 18.8806 29.714L19.1666 30" stroke="#1F87FC" stroke-width="2" stroke-linecap="round"/>
<path d="M16.6667 10.563C19.1181 9.14495 21.9643 8.33334 25 8.33334C34.2047 8.33334 41.6667 15.7953 41.6667 25C41.6667 34.2047 34.2047 41.6667 25 41.6667C15.7952 41.6667 8.33333 34.2047 8.33333 25C8.33333 21.9643 9.14495 19.1181 10.563 16.6667" stroke="#1F87FC" stroke-width="2" stroke-linecap="round"/>
<circle cx="25" cy="25" r="24" stroke="#1F87FC" stroke-width="2"/>
</svg>
